<?xml version="1.0" standalone="no"?>
<!DOCTYPE svg PUBLIC "-//W3C//DTD SVG 1.1//EN" "http://www.w3.org/Graphics/SVG/1.1/DTD/svg11.dtd" >
<svg xmlns="http://www.w3.org/2000/svg">
<metadata>Generated by IcoMoon</metadata>
<defs>
<font id="icomoon" horiz-adv-x="1024">
<font-face units-per-em="1024" ascent="960" descent="-64" />
<missing-glyph horiz-adv-x="1024" />
<glyph unicode="&#x20;" horiz-adv-x="512" d="" />
<glyph unicode="&#xe900;" glyph-name="paggination-left" horiz-adv-x="569" d="M563.112 848.919l-91.603 88.961c-7.604 7.33-19.732 7.253-27.22-0.193l-438.674-436.007c-7.487-7.446-7.487-19.482 0-26.927l438.674-436.046c7.487-7.407 19.615-7.484 27.22-0.154l91.603 88.961c7.643 7.446 7.721 19.636 0.117 27.12l-323.517 320.081c-7.565 7.446-7.565 19.559 0 27.005l323.517 320.081c7.604 7.484 7.526 19.675-0.117 27.12z" />
<glyph unicode="&#xe901;" glyph-name="notice-send" horiz-adv-x="2133" d="M1021.221 890.027h933.56c91.942 0 162.666-70.724 162.666-162.666v-558.722c0-91.942-70.724-162.666-162.666-162.666h-933.56c-84.869 0-155.593 70.724-155.593 162.666v558.722c0 91.942 70.724 162.666 155.593 162.666zM936.352 133.277l247.535 247.535c28.29 28.29 77.797-21.217 49.507-49.507l-247.535-247.535c14.145-7.072 21.217-7.072 35.362-7.072h933.56c14.145 0 28.29 0 35.362 7.072l-240.462 247.535c-35.362 28.29 14.145 77.797 49.507 49.507l240.462-247.535c0 7.072 7.072 21.217 7.072 35.362v558.722l-424.346-353.621c-77.797-63.652-190.956-56.579-261.68 0l-424.346 353.621v-558.722c0-14.145 0-28.29 0-35.362zM964.642 798.085l438.49-367.766c49.507-35.362 120.231-35.362 169.738 0l445.563 367.766c-21.217 14.145-42.435 21.217-63.652 21.217h-933.56c-21.217 0-42.435-7.072-56.579-21.217zM349.341 218.146c-42.435 0-42.435-63.652 0-63.652h374.839c42.435 0 42.435 63.652 0 63.652h-374.839zM377.63 402.029c-42.435 0-42.435-63.652 0-63.652h346.549c42.435 0 42.435 63.652 0 63.652h-346.549zM250.327 338.377c42.435 0 42.435 63.652 0 63.652h-84.869c-42.435 0-42.435-63.652 0-63.652h84.869zM31.081 557.623c-35.362 0-35.362-63.652 0-63.652h693.098c42.435 0 42.435 63.652 0 63.652h-693.098zM306.906 741.506c-42.435 0-42.435-63.652 0-63.652h77.797c42.435 0 42.435 63.652 0 63.652h-77.797zM724.179 677.854c42.435 0 42.435 63.652 0 63.652h-226.318c-42.435 0-42.435-63.652 0-63.652h226.318z" />
<glyph unicode="&#xe902;" glyph-name="breadcrumb-home" d="M512 568.107l298.667-277.931v-268.843h-597.333v268.843l298.667 277.931zM512 684.672l-384-357.333v-391.339h768v391.339l-384 357.333zM597.333 64h-170.667v256h170.667v-256zM1024 441.685l-58.069-62.507-453.931 421.675-453.931-421.035-58.069 62.507 512 475.008 512-475.648z" />
<glyph unicode="&#xe903;" glyph-name="radio-checked" horiz-adv-x="983" d="M737.28 468.48c0-135.73-110.030-245.76-245.76-245.76s-245.76 110.030-245.76 245.76c0 135.73 110.030 245.76 245.76 245.76s245.76-110.030 245.76-245.76zM491.52 878.080c225.853 0 409.6-183.747 409.6-409.6s-183.747-409.6-409.6-409.6c-225.853 0-409.6 183.747-409.6 409.6s183.747 409.6 409.6 409.6zM491.52 960c-271.442 0-491.52-220.078-491.52-491.52s220.078-491.52 491.52-491.52c271.442 0 491.52 220.078 491.52 491.52s-220.078 491.52-491.52 491.52z" />
<glyph unicode="&#xe904;" glyph-name="notice-error" d="M688.768 874.667l249.899-249.941v-353.451l-249.899-249.941h-353.536l-249.899 249.941v353.451l249.899 249.941h353.536zM724.096 960h-424.192l-299.904-299.904v-424.149l299.904-299.947h424.149l299.947 299.904v424.192l-299.904 299.904zM448 704h128l-42.667-341.333h-42.667l-42.667 341.333zM512 181.333c-29.44 0-53.333 23.893-53.333 53.333s23.893 53.333 53.333 53.333 53.333-23.893 53.333-53.333-23.893-53.333-53.333-53.333z" />
<glyph unicode="&#xe905;" glyph-name="checkbox-empty" horiz-adv-x="945" d="M78.769 940.308h787.692c43.503 0 78.769-35.266 78.769-78.769v-787.692c0-43.503-35.266-78.769-78.769-78.769h-787.692c-43.503 0-78.769 35.266-78.769 78.769v787.692c0 43.503 35.266 78.769 78.769 78.769z" />
<glyph unicode="&#xe906;" glyph-name="checkbox-checked" horiz-adv-x="945" d="M907.383-56h-792c-59.647 0-108 48.352-108 108v792c0 59.647 48.352 108 108 108h792c59.647 0 108-48.352 108-108v-792c0-59.647-48.352-108-108-108zM446.839 164.633l414 414c14.058 14.058 14.058 36.853 0 50.911l-50.911 50.911c-14.058 14.058-36.853 14.060-50.913 0l-337.633-337.631-157.633 157.633c-14.058 14.058-36.853 14.058-50.913 0l-50.911-50.911c-14.058-14.058-14.058-36.853 0-50.911l234-234c14.060-14.063 36.853-14.063 50.913-0.002v0z" />
<glyph unicode="&#xe907;" glyph-name="social-viber" d="M849.816 818.416c-22.814 21.018-115.164 88.036-321.060 88.932 0 0-242.726 14.552-360.946-93.966-65.758-65.754-88.934-162.236-91.45-281.712-2.516-119.48-5.57-343.338 210.208-404.068h0.178l-0.178-92.706c0 0-1.436-37.55 23.356-45.096 29.826-9.344 47.432 19.222 75.998 49.946 15.632 16.888 37.19 41.682 53.54 60.55 147.684-12.4 261.056 15.988 273.99 20.118 29.826 9.702 198.53 31.264 225.838 255.126 28.386 231.050-13.654 376.938-89.474 442.876zM874.792 392.428c-23.178-186.846-159.904-198.706-185.056-206.792-10.78-3.412-110.494-28.208-235.72-20.124 0 0-93.426-112.648-122.532-141.936-9.522-9.52-19.942-8.622-19.762 10.244 0 12.392 0.718 153.97 0.718 153.97-0.18 0-0.18 0 0 0-182.9 50.668-172.12 241.292-170.144 341.006 1.976 99.712 20.842 181.46 76.538 236.436 100.074 90.732 306.15 77.256 306.15 77.256 174.094-0.718 257.46-53.178 276.864-70.786 64.138-54.978 96.84-186.494 72.944-379.274v0zM625.056 537.598c0.718-15.45-22.458-16.53-23.176-1.076-1.978 39.526-20.484 58.748-58.572 60.904-15.452 0.9-14.014 24.076 1.256 23.176 50.13-2.694 77.978-31.44 80.492-83.004zM661.53 517.298c1.794 76.178-45.814 135.826-136.188 142.472-15.272 1.078-13.654 24.256 1.62 23.178 104.206-7.548 159.72-79.234 157.744-166.19-0.18-15.45-23.538-14.734-23.176 0.54zM745.972 493.222c0.178-15.452-23.178-15.63-23.178-0.18-1.078 146.426-98.634 226.198-217.036 227.096-15.272 0.18-15.272 23.176 0 23.176 132.414-0.898 238.956-92.346 240.214-250.092zM725.668 316.972v-0.362c-19.404-34.136-55.696-71.868-93.066-59.83l-0.36 0.542c-37.91 10.598-127.2 56.592-183.616 101.51-29.106 22.998-55.698 50.126-76.18 76.178-18.504 23.178-37.188 50.668-55.334 83.724-38.268 69.172-46.712 100.074-46.712 100.074-12.038 37.37 25.512 73.664 59.826 93.066h0.362c16.528 8.626 32.338 5.75 42.938-7.004 0 0 22.28-26.588 31.8-39.708 8.984-12.216 21.022-31.798 27.31-42.758 10.96-19.582 4.13-39.526-6.648-47.788l-21.56-17.25c-10.958-8.802-9.522-25.152-9.522-25.152s31.98-120.916 151.458-151.46c0 0 16.352-1.438 25.152 9.522l17.25 21.56c8.262 10.78 28.208 17.606 47.79 6.646 26.412-14.91 60.008-38.088 82.288-59.11 12.574-10.24 15.448-25.874 6.824-42.4v0z" />
<glyph unicode="&#xe908;" glyph-name="radio-empty" horiz-adv-x="983" d="M491.52 878.080c225.853 0 409.6-183.747 409.6-409.6s-183.747-409.6-409.6-409.6c-225.853 0-409.6 183.747-409.6 409.6s183.747 409.6 409.6 409.6zM491.52 960c-271.442 0-491.52-220.078-491.52-491.52s220.078-491.52 491.52-491.52c271.442 0 491.52 220.078 491.52 491.52s-220.078 491.52-491.52 491.52z" />
<glyph unicode="&#xe909;" glyph-name="counter-minus" d="M0 448v-42.667h981.333v42.667h-981.333z" />
<glyph unicode="&#xe90a;" glyph-name="counter-plus" d="M469.333 490.667v469.333h42.667v-469.333h469.333v-42.667h-469.333v-469.333h-42.667v469.333h-469.333v42.667h469.333z" />
<glyph unicode="&#xe90b;" glyph-name="breadcrumb-more" horiz-adv-x="1152" d="M438.857 82.286c0-50.495-40.934-91.429-91.429-91.429s-91.429 40.934-91.429 91.429c0 50.495 40.934 91.429 91.429 91.429s91.429-40.934 91.429-91.429zM658.286 82.286c0-50.495-40.934-91.429-91.429-91.429s-91.429 40.934-91.429 91.429c0 50.495 40.934 91.429 91.429 91.429s91.429-40.934 91.429-91.429zM877.714 82.286c0-50.495-40.934-91.429-91.429-91.429s-91.429 40.934-91.429 91.429c0 50.495 40.934 91.429 91.429 91.429s91.429-40.934 91.429-91.429z" />
<glyph unicode="&#xe90c;" glyph-name="collection-folder" d="M102.4 38.4h716.8v-102.4h-716.8c-56.32 0-102.4 46.080-102.4 102.4v716.8h102.4zM921.6 960c56.32 0 102.4-46.080 102.4-102.4v-614.4c0-56.32-46.080-102.4-102.4-102.4h-614.4c-56.32 0-102.4 46.080-102.4 102.4v614.4c0 56.32 46.080 102.4 102.4 102.4zM358.4 499.2h512v102.4h-512zM358.4 294.4h307.2v102.4h-307.2zM358.4 704h512v102.4h-512z" />
<glyph unicode="&#xe90d;" glyph-name="editor-toggle-open" horiz-adv-x="1536" d="M1524.042 815.158c11.021-11.311 10.905-29.35-0.29-40.486l-655.554-652.48c-11.195-11.137-29.292-11.137-40.486 0l-655.612 652.48c-11.137 11.137-11.253 29.176-0.232 40.486l133.756 136.25c11.195 11.369 29.524 11.485 40.776 0.174l481.254-481.196c11.195-11.253 29.408-11.253 40.602 0l481.254 481.196c11.253 11.311 29.582 11.195 40.776-0.174l133.756-136.25z" />
<glyph unicode="&#xe90e;" glyph-name="filter-section-open" d="M1016.028 692.772c7.347-7.54 7.27-19.566-0.193-26.991l-437.036-434.987c-7.463-7.424-19.528-7.424-26.991 0l-437.075 434.987c-7.424 7.424-7.502 19.45-0.155 26.991l89.171 90.833c7.463 7.579 19.682 7.656 27.184 0.116l320.836-320.797c7.463-7.502 19.605-7.502 27.068 0l320.836 320.797c7.502 7.54 19.721 7.463 27.184-0.116l89.171-90.833z" />
<glyph unicode="&#xe90f;" glyph-name="select-close" d="M917.794 761.501l100.081-103.054c8.246-8.555 8.159-22.199-0.217-30.622l-490.508-493.508c-8.376-8.423-21.917-8.423-30.293 0l-490.552 493.508c-8.333 8.423-8.42 22.067-0.174 30.622l100.081 103.054c8.376 8.599 22.091 8.687 30.51 0.132l360.091-363.956c8.376-8.511 22.004-8.511 30.38 0l360.091 363.956c8.42 8.555 22.134 8.467 30.51-0.132z" />
<glyph unicode="&#xe910;" glyph-name="paggination-right" horiz-adv-x="569" d="M5.777 808.706l91.603 88.961c7.604 7.33 19.732 7.253 27.22-0.193l438.674-436.007c7.487-7.446 7.487-19.482 0-26.927l-438.674-436.046c-7.487-7.407-19.615-7.484-27.22-0.154l-91.603 88.961c-7.643 7.446-7.721 19.636-0.117 27.12l323.517 320.081c7.565 7.446 7.565 19.559 0 27.005l-323.517 320.081c-7.604 7.484-7.526 19.675 0.117 27.12z" />
<glyph unicode="&#xe911;" glyph-name="breadcrumb-separator" d="M233.332 808.706l91.603 88.961c7.604 7.33 19.732 7.253 27.22-0.193l438.674-436.007c7.487-7.446 7.487-19.482 0-26.927l-438.674-436.046c-7.487-7.407-19.615-7.484-27.22-0.154l-91.603 88.961c-7.643 7.446-7.721 19.636-0.117 27.12l323.517 320.081c7.565 7.446 7.565 19.559 0 27.005l-323.517 320.081c-7.604 7.484-7.526 19.675 0.117 27.12z" />
<glyph unicode="&#xe912;" glyph-name="search-clear" d="M512 478.165l439.168 439.168 30.165-30.165-439.168-439.168 439.168-439.168-30.165-30.165-439.168 439.168-439.168-439.168-30.165 30.165 439.168 439.168-439.168 439.168 30.165 30.165 439.168-439.168z" />
<glyph unicode="&#xe913;" glyph-name="filter-section-close" d="M960.213 262.508c7.347 7.54 7.27 19.566-0.193 26.991l-437.036 434.987c-7.463 7.424-19.528 7.424-26.991 0l-437.075-434.987c-7.424-7.424-7.502-19.45-0.155-26.991l89.171-90.833c7.463-7.579 19.682-7.656 27.184-0.116l320.836 320.797c7.463 7.502 19.605 7.502 27.068 0l320.836-320.797c7.502-7.54 19.721-7.463 27.184 0.116l89.171 90.833z" />
<glyph unicode="&#xe914;" glyph-name="select-open" d="M917.794 144.269l100.081 103.054c8.246 8.555 8.159 22.199-0.217 30.622l-490.508 493.508c-8.376 8.423-21.917 8.423-30.293 0l-490.552-493.508c-8.333-8.423-8.42-22.067-0.174-30.622l100.081-103.054c8.376-8.599 22.091-8.687 30.51-0.132l360.091 363.956c8.376 8.511 22.004 8.511 30.38 0l360.091-363.956c8.42-8.555 22.134-8.467 30.51 0.132z" />
<glyph unicode="&#xe915;" glyph-name="editor-toggle-close" horiz-adv-x="1536" d="M1440.32 169.762c11.021 11.311 10.905 29.35-0.29 40.486l-655.554 652.48c-11.195 11.137-29.292 11.137-40.486 0l-655.612-652.48c-11.137-11.137-11.253-29.176-0.232-40.486l133.756-136.25c11.195-11.369 29.524-11.485 40.776-0.174l481.254 481.196c11.195 11.253 29.408 11.253 40.602 0l481.254-481.196c11.253-11.311 29.582-11.195 40.776 0.174l133.756 136.25z" />
<glyph unicode="&#xe916;" glyph-name="article-update" d="M904.223 843.318h-131.779v60.812c0 16.814-13.591 30.406-30.406 30.406s-30.406-13.591-30.406-30.406v-60.812h-182.435v60.812c0 16.814-13.622 30.406-30.406 30.406s-30.406-13.591-30.406-30.406v-60.812h-182.435v60.812c0 16.814-13.622 30.406-30.406 30.406s-30.406-13.591-30.406-30.406v-60.812h-131.748c-44.788 0-81.092-36.274-81.092-81.062v-719.613c0-44.788 36.304-81.092 81.092-81.092h810.831c44.788 0 81.062 36.304 81.062 81.092v719.613c0 44.788-36.274 81.062-81.062 81.062zM924.473 42.643c0-11.189-9.091-20.281-20.25-20.281h-810.831c-11.189 0-20.281 9.091-20.281 20.281v719.613c0 11.159 9.091 20.25 20.281 20.25h131.748v-60.812c0-16.814 13.622-30.406 30.406-30.406s30.406 13.591 30.406 30.406v60.812h182.435v-60.812c0-16.814 13.622-30.406 30.406-30.406s30.406 13.591 30.406 30.406v60.812h182.435v-60.812c0-16.814 13.591-30.406 30.406-30.406s30.406 13.591 30.406 30.406v60.812h131.779c11.159 0 20.25-9.091 20.25-20.25v-719.613zM225.141 569.666h121.623v-91.217h-121.623v91.217zM225.141 417.637h121.623v-91.217h-121.623v91.217zM225.141 265.608h121.623v-91.217h-121.623v91.217zM437.981 265.608h121.623v-91.217h-121.623v91.217zM437.981 417.637h121.623v-91.217h-121.623v91.217zM437.981 569.666h121.623v-91.217h-121.623v91.217zM650.822 265.608h121.623v-91.217h-121.623v91.217zM650.822 417.637h121.623v-91.217h-121.623v91.217zM650.822 569.666h121.623v-91.217h-121.623v91.217z" />
<glyph unicode="&#xe917;" glyph-name="slider-prev" horiz-adv-x="569" d="M563.112 848.919l-91.603 88.961c-7.604 7.33-19.732 7.253-27.22-0.193l-438.674-436.007c-7.487-7.446-7.487-19.482 0-26.927l438.674-436.046c7.487-7.407 19.615-7.484 27.22-0.154l91.603 88.961c7.643 7.446 7.721 19.636 0.117 27.12l-323.517 320.081c-7.565 7.446-7.565 19.559 0 27.005l323.517 320.081c7.604 7.484 7.526 19.675-0.117 27.12z" />
<glyph unicode="&#xe918;" glyph-name="notice-info" d="M512 960c-282.581 0-512-229.419-512-512s229.419-512 512-512c282.581 0 512 229.419 512 512s-229.419 512-512 512zM512 917.333c259.029 0 469.333-210.304 469.333-469.333s-210.304-469.333-469.333-469.333-469.333 210.304-469.333 469.333 210.304 469.333 469.333 469.333zM533.333 192v384h-42.667v-384h42.667zM512 704c19.883 0 36.053-16.128 36.053-36.053 0-19.883-16.171-36.011-36.053-36.011s-36.053 16.128-36.053 36.011c0 19.925 16.171 36.053 36.053 36.053z" />
<glyph unicode="&#xe919;" glyph-name="menu-mobile" d="M42.667 618.667h938.667c23.573 0 42.667 25.486 42.667 56.889 0 31.431-19.093 56.889-42.667 56.889h-938.667c-23.552 0-42.667-25.458-42.667-56.889 0-31.403 19.115-56.889 42.667-56.889zM981.333 391.111c23.573 0 42.667 25.486 42.667 56.889 0 31.431-19.093 56.889-42.667 56.889h-938.667c-23.552 0-42.667-25.458-42.667-56.889 0-31.403 19.115-56.889 42.667-56.889h938.667zM981.333 277.333h-938.667c-23.552 0-42.667-25.458-42.667-56.889s19.115-56.889 42.667-56.889h938.667c23.573 0 42.667 25.458 42.667 56.889s-19.093 56.889-42.667 56.889z" />
<glyph unicode="&#xe91a;" glyph-name="common-date" d="M904.223 843.318h-131.779v60.812c0 16.814-13.591 30.406-30.406 30.406s-30.406-13.591-30.406-30.406v-60.812h-182.435v60.812c0 16.814-13.622 30.406-30.406 30.406s-30.406-13.591-30.406-30.406v-60.812h-182.435v60.812c0 16.814-13.622 30.406-30.406 30.406s-30.406-13.591-30.406-30.406v-60.812h-131.748c-44.788 0-81.092-36.274-81.092-81.062v-719.613c0-44.788 36.304-81.092 81.092-81.092h810.831c44.788 0 81.062 36.304 81.062 81.092v719.613c0 44.788-36.274 81.062-81.062 81.062zM924.473 42.643c0-11.189-9.091-20.281-20.25-20.281h-810.831c-11.189 0-20.281 9.091-20.281 20.281v719.613c0 11.159 9.091 20.25 20.281 20.25h131.748v-60.812c0-16.814 13.622-30.406 30.406-30.406s30.406 13.591 30.406 30.406v60.812h182.435v-60.812c0-16.814 13.622-30.406 30.406-30.406s30.406 13.591 30.406 30.406v60.812h182.435v-60.812c0-16.814 13.591-30.406 30.406-30.406s30.406 13.591 30.406 30.406v60.812h131.779c11.159 0 20.25-9.091 20.25-20.25v-719.613zM225.141 569.666h121.623v-91.217h-121.623v91.217zM225.141 417.637h121.623v-91.217h-121.623v91.217zM225.141 265.608h121.623v-91.217h-121.623v91.217zM437.981 265.608h121.623v-91.217h-121.623v91.217zM437.981 417.637h121.623v-91.217h-121.623v91.217zM437.981 569.666h121.623v-91.217h-121.623v91.217zM650.822 265.608h121.623v-91.217h-121.623v91.217zM650.822 417.637h121.623v-91.217h-121.623v91.217zM650.822 569.666h121.623v-91.217h-121.623v91.217z" />
<glyph unicode="&#xe91b;" glyph-name="catalog" d="M358.4 704v102.4h512v-102.4h-512zM358.4 294.4v102.4h307.2v-102.4h-307.2zM358.4 499.2v102.4h512v-102.4h-512zM921.6 960h-614.4c-56.32 0-102.4-46.080-102.4-102.4v-614.4c0-56.32 46.080-102.4 102.4-102.4h614.4c56.32 0 102.4 46.080 102.4 102.4v614.4c0 56.32-46.080 102.4-102.4 102.4zM102.4 755.2h-102.4v-716.8c0-56.32 46.080-102.4 102.4-102.4h716.8v102.4h-716.8v716.8z" />
<glyph unicode="&#xe91c;" glyph-name="compare-icon" d="M45.591 754.957h95.674v-757.413c0-22 21.434-39.86 47.837-39.86 26.435 0 47.837 17.86 47.837 39.86v757.413h95.674c26.435 0 47.837 17.86 47.837 39.86 0 22.029-21.402 39.86-47.837 39.86h-95.674v39.86c0 22.029-21.402 39.86-47.837 39.86-26.403 0-47.837-17.843-47.837-39.86v-39.86h-95.674c-26.403 0-47.837-17.843-47.837-39.86 0-22 21.434-39.86 47.837-39.86zM667.47 37.404h95.674v-39.86c0-22 21.434-39.86 47.837-39.86 26.435 0 47.837 17.86 47.837 39.86v39.86h95.674c26.435 0 47.837 17.86 47.837 39.86 0 22.029-21.402 39.86-47.837 39.86h-95.674v757.413c0 22.029-21.402 39.86-47.837 39.86-26.403 0-47.837-17.843-47.837-39.86v-757.413h-95.674c-26.403 0-47.837-17.843-47.837-39.86 0-22 21.434-39.86 47.837-39.86zM342.247 421.197c-22.926 0-41.53 17.359-41.53 38.762 0 21.407 18.605 38.762 41.53 38.762h83.049v387.565c0 21.407 18.605 38.762 41.53 38.762 22.943 0 41.53-17.343 41.53-38.762v-387.565h83.049c22.943 0 41.53-17.343 41.53-38.762 0-21.391-18.587-38.762-41.53-38.762h-83.049v-387.565c0-21.391-18.587-38.762-41.53-38.762-22.926 0-41.53 17.359-41.53 38.762v387.565h-83.049zM-23.175-63.256h1046.431v1046.431h-1046.431v-1046.431zM1060.629 1057.92c20.645 0 37.373-16.727 37.373-37.373v-1121.176c0-20.645-16.727-37.373-37.373-37.373h-1121.176c-20.63 0-37.373 16.727-37.373 37.373v1121.176c0 20.645 16.743 37.373 37.373 37.373h1121.176z" />
<glyph unicode="&#xe91d;" glyph-name="filter-section-submit" d="M0 457.707l80.989 74.835c94.717-45.84 154.798-80.673 261.232-156.573 200.125 227.108 332.398 342.339 578.205 495.283l26.352-60.594c-202.729-176.889-351.175-373.937-564.95-757.343-131.878 155.271-219.889 254.288-381.827 404.392z" />
<glyph unicode="&#xe91e;" glyph-name="comments" d="M897.674 931.556h-633.203c-54.289 0-98.45-44.161-98.45-98.45v-133.979h-67.57c-54.289 0-98.45-44.161-98.45-98.434v-350.984c0-54.289 44.161-98.45 98.45-98.45h100.775v-166.021c0-6.857 4.217-13.016 10.625-15.49 1.942-0.747 3.968-1.112 5.977-1.112 4.582 0 9.081 1.909 12.286 5.429l161.073 177.194h342.467c54.289 0 98.45 44.161 98.45 98.434v133.995h67.57c54.289 0 98.45 44.161 98.45 98.45v350.968c0 54.289-44.161 98.45-98.45 98.45zM796.899 249.692c0-35.96-29.269-65.23-65.246-65.23h-349.806c-4.682 0-9.148-1.976-12.286-5.429l-137.133-150.863v139.69c0 9.164-7.421 16.602-16.602 16.602h-117.377c-35.977 0-65.246 29.269-65.246 65.246v350.984c0 35.96 29.269 65.23 65.246 65.23h633.203c35.977 0 65.246-29.269 65.246-65.246v-350.984zM962.92 482.138c0-35.977-29.269-65.246-65.246-65.246h-67.57v183.785c0 54.289-44.161 98.45-98.45 98.45h-532.428v133.979c0 35.977 29.269 65.246 65.246 65.246h633.203c35.977 0 65.246-29.269 65.246-65.246v-350.968z" />
<glyph unicode="&#xe91f;" glyph-name="ellipsis" d="M256 448c0-70.699-57.301-128-128-128s-128 57.301-128 128c0 70.699 57.301 128 128 128s128-57.301 128-128zM640 448c0-70.699-57.301-128-128-128s-128 57.301-128 128c0 70.699 57.301 128 128 128s128-57.301 128-128zM1024 448c0-70.699-57.301-128-128-128s-128 57.301-128 128c0 70.699 57.301 128 128 128s128-57.301 128-128z" />
<glyph unicode="&#xe920;" glyph-name="notice-warning" d="M1001.254 233.963l-355.172 620.046c-24.078 48.159-78.256 78.256-132.438 78.256-54.179 0-102.338-30.101-132.438-78.256l-355.172-620.046c-30.101-48.159-30.101-108.357 0-156.516 24.078-48.159 78.256-78.256 132.438-78.256h710.345c60.198 0 108.357 30.101 132.438 78.256 30.101 48.159 30.101 108.357 0 156.516zM944.555 109.693c-11.936-30.229-41.78-48.364-77.588-48.364h-710.249c-29.844 0-59.684 18.135-77.588 48.364s-17.904 66.5 0 96.729l352.139 622.69c11.936 30.229 41.78 48.364 77.588 48.364 35.812 0 65.652-18.135 83.56-48.364l352.139-622.687c17.908-30.229 17.908-66.503 0-96.732zM574.203 217.879c0-28.277-22.923-51.2-51.2-51.2s-51.2 22.923-51.2 51.2c0 28.277 22.923 51.2 51.2 51.2s51.2-22.923 51.2-51.2zM476.772 626.882h81.174c5.655 0 10.24-4.585 10.24-10.24 0-0.369-0.020-0.737-0.060-1.104l-35.26-325.24h-33.658l-32.625 325.322c-0.564 5.627 3.54 10.646 9.167 11.211 0.34 0.034 0.681 0.051 1.022 0.051z" />
<glyph unicode="&#xe921;" glyph-name="compare-remove" horiz-adv-x="768" d="M652.8 669.020v-614.4h-537.6v614.4h-76.8v-691.2h691.2v691.2h-76.8zM768 822.62v-76.8h-768v76.8h219.302c34.598 0 62.63 42.202 62.63 76.8h204.096c0-34.598 28.109-76.8 62.669-76.8h219.302zM576 169.82c0-21.197-17.203-38.4-38.4-38.4s-38.4 17.203-38.4 38.4v384c0 21.197 17.203 38.4 38.4 38.4s38.4-17.203 38.4-38.4v-384zM422.4 169.82c0-21.197-17.203-38.4-38.4-38.4s-38.4 17.203-38.4 38.4v384c0 21.197 17.203 38.4 38.4 38.4s38.4-17.203 38.4-38.4v-384zM268.8 169.82c0-21.197-17.203-38.4-38.4-38.4s-38.4 17.203-38.4 38.4v384c0 21.197 17.203 38.4 38.4 38.4s38.4-17.203 38.4-38.4v-384z" />
<glyph unicode="&#xe922;" glyph-name="compare-diff-hide" horiz-adv-x="1455" d="M724.18 6.202c-259.562 0-491.246 215.798-615.467 431.698 123.913 210.263 355.802 388.241 615.467 388.241 263.149 0 493.757-176.953 614.903-387.626-114.843-227.021-344.682-432.313-614.903-432.313zM168.569 437.49c43.201-68.209 257.153-380.042 555.611-380.042 323.107 0 518.202 312.756 556.072 379.478-39.562 61.393-236.040 337.969-556.072 337.969-313.422 0-513.743-274.423-555.611-337.405zM723.668 672.403c141.439 0 256.231-114.791 256.231-256.231s-114.791-256.231-256.231-256.231c-141.439 0-256.231 114.791-256.231 256.231s114.791 256.231 256.231 256.231zM723.668 621.156c-113.152 0-204.985-91.833-204.985-204.985s91.833-204.985 204.985-204.985c113.152 0 204.985 91.833 204.985 204.985s-91.833 204.985-204.985 204.985zM1428.178 901.812c8.106-12.482 4.558-29.171-7.923-37.277l-1355.998-880.595c-12.482-8.106-29.171-4.558-37.277 7.923s-4.558 29.171 7.923 37.277l1355.998 880.595c12.482 8.106 29.171 4.558 37.277-7.923z" />
<glyph unicode="&#xe923;" glyph-name="moda-toggler-backcall" d="M671.289 472.128h106.193c0 146.546-118.936 265.481-265.481 265.481v-106.193c88.14 0 159.289-71.149 159.289-159.289zM883.674 472.128h106.193c0 263.889-213.978 477.867-477.867 477.867v-106.193c205.483 0 371.674-166.191 371.674-371.674zM936.77 286.291c-66.37 0-130.086 10.619-189.554 30.265-18.584 5.841-39.291 1.593-54.158-12.743l-116.812-116.812c-150.263 76.459-273.446 199.111-349.905 349.905l116.812 117.343c14.867 13.805 19.115 34.513 13.274 53.096-19.646 59.468-30.265 123.183-30.265 189.554 0 29.203-23.893 53.096-53.096 53.096h-185.837c-29.203 0-53.096-23.893-53.096-53.096 0-498.574 404.063-902.637 902.637-902.637 29.203 0 53.096 23.893 53.096 53.096v185.837c0 29.203-23.893 53.096-53.096 53.096z" />
<glyph unicode="&#xe924;" glyph-name="notice-compare" d="M862.316 174.933h-53.895v491.52c0 15.046-12.099 27.307-26.947 27.307h-458.105v54.613h458.105c44.571 0 80.842-36.755 80.842-81.92v-491.52zM835.368 135.912l-180.709 213.647 38.050 33.068 142.659-168.673 142.659 168.673 38.050-33.068-180.709-213.647zM700.632 147.627h-458.105c-44.571 0-80.842 36.755-80.842 81.92v491.52h53.895v-491.52c0-15.046 12.099-27.307 26.947-27.307h458.105v-54.613zM331.291 513.399l-142.659 168.646-142.659-168.646-38.050 33.068 180.709 213.62 180.709-213.62-38.050-33.068z" />
<glyph unicode="&#xe925;" glyph-name="search-button" d="M876.746 33.608l-237.536 237.52 49.661 49.661 237.536-237.536-49.661-49.646zM62.625 631.22c0 146.761 119.394 266.155 266.155 266.155s266.155-119.394 266.155-266.155c0-146.761-119.394-266.155-266.155-266.155s-266.155 119.394-266.155 266.155zM711.010 387.219c-12.227 12.227-32.048 12.227-44.276 0l-24.831-24.846-59.666 59.681c47.016 56.879 75.322 129.774 75.322 209.167 0 181.299-147.497 328.78-328.78 328.78s-328.78-147.481-328.78-328.78c0-181.283 147.497-328.78 328.78-328.78 79.392 0 152.303 28.306 209.182 75.322l59.666-59.666-24.831-24.815c-12.227-12.227-12.227-32.064 0-44.291l281.811-281.811c6.122-6.106 14.122-9.175 22.138-9.175s16.016 3.069 22.138 9.175l93.937 93.937c12.227 12.227 12.227 32.064 0 44.276l-281.811 281.827z" />
<glyph unicode="&#xe926;" glyph-name="share" d="M170.667 279.723c-92.809 0-168.277 75.503-168.277 168.277s75.469 168.277 168.277 168.277c92.809 0 168.277-75.503 168.277-168.277s-75.469-168.277-168.277-168.277v0zM170.667 552.789c-57.754 0-104.789-47.002-104.789-104.789s47.036-104.789 104.789-104.789c57.754 0 104.789 47.002 104.789 104.789s-47.036 104.789-104.789 104.789v0zM853.333 621.056c-92.809 0-168.277 75.503-168.277 168.277s75.469 168.277 168.277 168.277c92.809 0 168.277-75.503 168.277-168.277s-75.469-168.277-168.277-168.277v0zM853.333 894.123c-57.754 0-104.789-47.002-104.789-104.789s47.036-104.789 104.789-104.789c57.754 0 104.789 47.002 104.789 104.789s-47.036 104.789-104.789 104.789v0zM853.333-61.611c-92.809 0-168.277 75.503-168.277 168.277s75.469 168.277 168.277 168.277c92.809 0 168.277-75.503 168.277-168.277s-75.469-168.277-168.277-168.277v0zM853.333 211.456c-57.754 0-104.789-47.002-104.789-104.789s47.036-104.789 104.789-104.789c57.754 0 104.789 47.002 104.789 104.789s-47.036 104.789-104.789 104.789v0zM716.425 136.943l-439.398 219.716 30.549 61.065 439.398-219.716-30.549-61.065zM307.575 478.276l-30.549 61.065 439.398 219.716 30.549-61.065-439.398-219.716z" />
<glyph unicode="&#xe927;" glyph-name="notice-cart" horiz-adv-x="860" d="M772.456 515.372l-62.438-220.358-506.468-24.912c-1.626-0.077-3.187-0.349-4.71-0.723l-21.222 245.992h594.839zM268.791 102.33c28.237 0 51.2-23.156 51.2-51.63s-22.963-51.63-51.2-51.63c-28.237 0-51.2 23.156-51.2 51.63s22.963 51.63 51.2 51.63zM575.989 102.33c28.237 0 51.2-23.156 51.2-51.63s-22.963-51.63-51.2-51.63c-28.237 0-51.2 23.156-51.2 51.63s22.963 51.63 51.2 51.63zM12.792 644.448c0-14.25 11.469-25.815 25.6-25.815h78.924l49.075-570.166v-0.090c0-55.864 46.656-100.937 102.348-100.937 47.603 0 87.667 32.992 99.084 77.445h109.145c11.418-44.454 51.417-77.445 99.020-77.445 56.461 0 102.399 46.325 102.399 103.261s-45.939 103.261-102.399 103.261c-47.603 0-87.603-32.992-99.020-77.445h-109.145c-11.418 44.454-51.417 77.445-99.033 77.445-21.709 0-41.817-6.893-58.406-18.574l-7.181 83.267c0.525-0.026 1.024-0.155 1.562-0.155 0.435 0 0.858 0.013 1.28 0.026l524.797 25.815c10.944 0.542 20.352 8.067 23.36 18.69l76.8 271.059c2.214 7.796 0.666 16.173-4.173 22.64s-12.403 10.274-20.441 10.274h-633.213l-6.874 79.678c-1.152 13.346-12.237 23.582-25.51 23.582h-102.399c-14.131 0-25.6-11.552-25.6-25.815zM599.564 735.256l-31.031 31.701-72.95-81.627v271.653h-47.475v-271.653l-72.38 81.627-29.783-31.701 126.185-131.32z" />
<glyph unicode="&#xe928;" glyph-name="cart-icon" d="M835.8 751.2h-131c-4.4 102-89.6 184.8-192.8 184.8s-188.4-82.6-193-184.8h-133l-60.2-791.2h772.4l-62.4 791.2zM512 894.4c80.2 0 147-64 151.4-143.2h-302.8c4.4 79.2 71.2 143.2 151.4 143.2zM225.4 709.6h93.4v-137h41.6v137h303.2v-137h41.6v137h95.6l54-708h-683.4l54 708z" />
<glyph unicode="&#xe929;" glyph-name="rating-checked" d="M512 934.955l156.501-322.901 355.499-49.109-258.731-248.661 63.147-353.237-316.416 169.259-316.459-169.259 63.189 353.237-258.731 248.661 355.499 49.109z" />
<glyph unicode="&#xe92a;" glyph-name="cart-trash" d="M780.8 669.020v-614.4h-537.6v614.4h-76.8v-691.2h691.2v691.2h-76.8zM896 822.62v-76.8h-768v76.8h219.302c34.598 0 62.63 42.202 62.63 76.8h204.096c0-34.598 28.109-76.8 62.669-76.8h219.302zM704 169.82c0-21.197-17.203-38.4-38.4-38.4s-38.4 17.203-38.4 38.4v384c0 21.197 17.203 38.4 38.4 38.4s38.4-17.203 38.4-38.4v-384zM550.4 169.82c0-21.197-17.203-38.4-38.4-38.4s-38.4 17.203-38.4 38.4v384c0 21.197 17.203 38.4 38.4 38.4s38.4-17.203 38.4-38.4v-384zM396.8 169.82c0-21.197-17.203-38.4-38.4-38.4s-38.4 17.203-38.4 38.4v384c0 21.197 17.203 38.4 38.4 38.4s38.4-17.203 38.4-38.4v-384z" />
<glyph unicode="&#xe92b;" glyph-name="common-user" d="M817.248 185.971c-10.691 24.003-32.317 40.591-76.636 50.831-93.921 21.668-181.371 40.673-138.977 120.627 128.819 243.384 34.12 373.514-101.949 373.514-138.772 0-231.178-135.127-101.949-373.514 43.663-80.445-47.022-99.41-138.977-120.627-44.401-10.24-65.864-26.952-76.472-51.036-57.549 70.574-92.201 160.522-92.201 258.458 0 225.853 183.747 409.6 409.6 409.6s409.6-183.747 409.6-409.6c0-97.853-34.611-187.72-92.037-258.253zM499.685 935.744c-271.442 0-491.52-220.078-491.52-491.52s220.078-491.52 491.52-491.52c271.442 0 491.52 220.078 491.52 491.52s-220.078 491.52-491.52 491.52z" />
<glyph unicode="&#xe92c;" glyph-name="article-comments" horiz-adv-x="1084" d="M950.478 960h-670.45c-57.482 0-104.241-46.759-104.241-104.241v-141.86h-71.545c-57.482 0-104.241-46.759-104.241-104.224v-371.63c0-57.482 46.759-104.241 104.241-104.241h106.702v-175.787c0-7.26 4.465-13.782 11.25-16.401 2.057-0.791 4.201-1.178 6.328-1.178 4.852 0 9.616 2.022 13.008 5.748l170.548 187.617h362.613c57.482 0 104.241 46.759 104.241 104.224v141.877h71.545c57.482 0 104.241 46.759 104.241 104.241v371.613c0 57.482-46.759 104.241-104.241 104.241zM843.776 238.027c0-38.075-30.991-69.067-69.084-69.067h-370.382c-4.957 0-9.686-2.092-13.008-5.748l-145.2-159.737v147.907c0 9.703-7.858 17.579-17.579 17.579h-124.281c-38.093 0-69.084 30.991-69.084 69.084v371.63c0 38.075 30.991 69.067 69.084 69.067h670.45c38.093 0 69.084-30.991 69.084-69.084v-371.63zM1019.562 484.146c0-38.093-30.991-69.084-69.084-69.084h-71.545v194.596c0 57.482-46.759 104.241-104.241 104.241h-563.748v141.86c0 38.093 30.991 69.084 69.084 69.084h670.45c38.093 0 69.084-30.991 69.084-69.084v-371.613z" />
<glyph unicode="&#xe92d;" glyph-name="rating-empty" d="M512 739.285l99.627-205.525 226.347-31.232-164.736-158.293 40.192-224.853-201.429 107.691-201.429-107.733 40.192 224.853-164.736 158.293 226.347 31.275 99.627 205.525zM512 934.955l-156.501-322.901-355.499-49.109 258.731-248.661-63.147-353.237 316.416 169.259 316.416-169.216-63.147 353.237 258.731 248.619-355.499 49.067-156.501 322.944z" />
<glyph unicode="&#xe92e;" glyph-name="rating-clear" d="M512 874.667c235.264 0 426.667-191.403 426.667-426.667s-191.403-426.667-426.667-426.667-426.667 191.403-426.667 426.667 191.403 426.667 426.667 426.667zM512 960c-282.752 0-512-229.248-512-512s229.248-512 512-512 512 229.248 512 512-229.248 512-512 512zM768 405.333h-512v85.333h512v-85.333z" />
<glyph unicode="&#xe92f;" glyph-name="collapse-open" d="M0 448v-42.667h981.333v42.667h-981.333z" />
<glyph unicode="&#xe930;" glyph-name="drop-open" d="M0 448v-42.667h981.333v42.667h-981.333z" />
<glyph unicode="&#xe931;" glyph-name="iconmonstr-plus-thin" d="M469.333 490.667v469.333h42.667v-469.333h469.333v-42.667h-469.333v-469.333h-42.667v469.333h-469.333v42.667h469.333z" />
<glyph unicode="&#xe932;" glyph-name="iconmonstr-plus-thin1" d="M469.333 490.667v469.333h42.667v-469.333h469.333v-42.667h-469.333v-469.333h-42.667v469.333h-469.333v42.667h469.333z" />
<glyph unicode="&#xe933;" glyph-name="filter-section-clear" d="M512 478.165l439.168 439.168 30.165-30.165-439.168-439.168 439.168-439.168-30.165-30.165-439.168 439.168-439.168-439.168-30.165 30.165 439.168 439.168-439.168 439.168 30.165 30.165 439.168-439.168z" />
<glyph unicode="&#xe934;" glyph-name="filter-clear" d="M810.667 337.664l153.003 153.003 60.331-60.331-153.003-153.003 153.003-153.003-60.331-60.331-153.003 153.003-153.003-153.003-60.331 60.331 153.003 153.003-153.003 153.003 60.331 60.331 153.003-153.003zM512 64h-512v85.333h512v-85.333zM512 235.691h-512v85.333h512v-85.333zM512 405.333h-512v85.333h512v-85.333zM1024 576h-1024v85.333h1024v-85.333zM1024 746.667h-1024v85.333h1024v-85.333z" />
<glyph unicode="&#xe935;" glyph-name="filter-submit" d="M42.667 960h938.667l-384-644.011v-379.989l-170.667 128v251.989z" />
<glyph unicode="&#xe936;" glyph-name="account-email" d="M0 832v-768h1024v768h-1024zM918.101 746.667l-406.101-329.088-406.101 329.088h812.203zM85.333 149.333v504.192l426.667-345.771 426.667 345.771v-504.192h-853.333z" />
<glyph unicode="&#xe937;" glyph-name="iconmonstr-filter-1" d="M42.667 960h938.667l-384-644.011v-379.989l-170.667 128v251.989z" />
<glyph unicode="&#xe939;" glyph-name="notice-trash" d="M780.8 669.020v-614.4h-537.6v614.4h-76.8v-691.2h691.2v691.2h-76.8zM896 822.62v-76.8h-768v76.8h219.302c34.598 0 62.63 42.202 62.63 76.8h204.096c0-34.598 28.109-76.8 62.669-76.8h219.302zM704 169.82c0-21.197-17.203-38.4-38.4-38.4s-38.4 17.203-38.4 38.4v384c0 21.197 17.203 38.4 38.4 38.4s38.4-17.203 38.4-38.4v-384zM550.4 169.82c0-21.197-17.203-38.4-38.4-38.4s-38.4 17.203-38.4 38.4v384c0 21.197 17.203 38.4 38.4 38.4s38.4-17.203 38.4-38.4v-384zM396.8 169.82c0-21.197-17.203-38.4-38.4-38.4s-38.4 17.203-38.4 38.4v384c0 21.197 17.203 38.4 38.4 38.4s38.4-17.203 38.4-38.4v-384z" />
<glyph unicode="&#xe93a;" glyph-name="notice-succes" d="M932.523 520.405c3.669-23.637 6.144-47.701 6.144-72.405 0-259.2-210.133-469.333-469.333-469.333s-469.333 210.133-469.333 469.333 210.133 469.333 469.333 469.333c100.139 0 192.768-31.616 268.971-85.035l-60.672-62.165c-60.075 38.955-131.499 61.867-208.299 61.867-211.712 0-384-172.288-384-384s172.288-384 384-384c208.811 0 378.837 167.595 383.573 375.253l79.616 81.152zM891.904 867.541l-401.237-411.264-163.968 154.197-132.053-132.181 296.021-286.293 533.333 543.445-132.096 132.096z" />
<glyph unicode="&#xe93b;" glyph-name="slider-next" d="M460.888 848.919l91.603 88.961c7.604 7.33 19.732 7.253 27.22-0.193l438.674-436.007c7.487-7.446 7.487-19.482 0-26.927l-438.674-436.046c-7.487-7.407-19.615-7.484-27.22-0.154l-91.603 88.961c-7.643 7.446-7.721 19.636-0.117 27.12l323.517 320.081c7.565 7.446 7.565 19.559 0 27.005l-323.517 320.081c-7.604 7.484-7.526 19.675 0.117 27.12z" />
<glyph unicode="&#xe93c;" glyph-name="product-link" horiz-adv-x="1385" d="M688.907-14.093c-290.099 0-549.040 241.186-687.875 482.486 138.491 235 397.661 433.917 687.875 433.917 294.108 0 551.846-197.771 687.245-433.229-128.354-253.729-385.233-483.173-687.245-483.173zM67.93 467.935c48.283-76.233 287.407-424.753 620.977-424.753 361.12 0 579.166 349.55 621.493 424.123-44.216 68.616-263.809 377.73-621.493 377.73-350.295 0-574.183-306.708-620.977-377.1zM688.335 730.484c158.079 0 286.376-128.296 286.376-286.376s-128.296-286.376-286.376-286.376c-158.079 0-286.376 128.296-286.376 286.376s128.296 286.376 286.376 286.376zM688.335 673.209c126.464 0 229.101-102.637 229.101-229.101s-102.637-229.101-229.101-229.101c-126.464 0-229.101 102.637-229.101 229.101s102.637 229.101 229.101 229.101z" />
<glyph unicode="&#xe93d;" glyph-name="product-available" d="M0 474.197l49.92 51.456c83.243-22.272 226.688-73.856 355.413-153.472 135.467 178.219 408.832 400.981 574.123 502.485l44.544-45.781-597.333-807.552-426.667 452.864z" />
<glyph unicode="&#xe93e;" glyph-name="product-unavailable" d="M1024 799.915l-188.715 160.085-331.563-385.664-326.272 384.341-177.451-182.528c97.493-123.093 225.451-251.861 356.779-371.541l-348.373-403.072 57.301-63.445c84.395 56.96 255.189 186.581 435.413 339.541 183.637-156.587 354.389-284.288 436.437-341.589l61.824 54.528-352.171 414.891c140.245 126.848 280.917 271.104 376.789 394.453z" />
<glyph unicode="&#xe93f;" glyph-name="article-author" d="M817.248 185.971c-10.691 24.003-32.317 40.591-76.636 50.831-93.921 21.668-181.371 40.673-138.977 120.627 128.819 243.384 34.12 373.514-101.949 373.514-138.772 0-231.178-135.127-101.949-373.514 43.663-80.445-47.022-99.41-138.977-120.627-44.401-10.24-65.864-26.952-76.472-51.036-57.549 70.574-92.201 160.522-92.201 258.458 0 225.853 183.747 409.6 409.6 409.6s409.6-183.747 409.6-409.6c0-97.853-34.611-187.72-92.037-258.253zM499.685 935.744c-271.442 0-491.52-220.078-491.52-491.52s220.078-491.52 491.52-491.52c271.442 0 491.52 220.078 491.52 491.52s-220.078 491.52-491.52 491.52z" />
<glyph unicode="&#xe940;" glyph-name="product-share" d="M170.667 279.723c-92.809 0-168.277 75.503-168.277 168.277s75.469 168.277 168.277 168.277c92.809 0 168.277-75.503 168.277-168.277s-75.469-168.277-168.277-168.277v0zM170.667 552.789c-57.754 0-104.789-47.002-104.789-104.789s47.036-104.789 104.789-104.789c57.754 0 104.789 47.002 104.789 104.789s-47.036 104.789-104.789 104.789v0zM853.333 621.056c-92.809 0-168.277 75.503-168.277 168.277s75.469 168.277 168.277 168.277c92.809 0 168.277-75.503 168.277-168.277s-75.469-168.277-168.277-168.277v0zM853.333 894.123c-57.754 0-104.789-47.002-104.789-104.789s47.036-104.789 104.789-104.789c57.754 0 104.789 47.002 104.789 104.789s-47.036 104.789-104.789 104.789v0zM853.333-61.611c-92.809 0-168.277 75.503-168.277 168.277s75.469 168.277 168.277 168.277c92.809 0 168.277-75.503 168.277-168.277s-75.469-168.277-168.277-168.277v0zM853.333 211.456c-57.754 0-104.789-47.002-104.789-104.789s47.036-104.789 104.789-104.789c57.754 0 104.789 47.002 104.789 104.789s-47.036 104.789-104.789 104.789v0zM716.425 136.943l-439.398 219.716 30.549 61.065 439.398-219.716-30.549-61.065zM307.575 478.276l-30.549 61.065 439.398 219.716 30.549-61.065-439.398-219.716z" />
<glyph unicode="&#xe941;" glyph-name="product-preorder" horiz-adv-x="956" d="M637.156 472.128h106.193c0 146.546-118.936 265.481-265.481 265.481v-106.193c88.14 0 159.289-71.149 159.289-159.289zM849.541 472.128h106.193c0 263.889-213.978 477.867-477.867 477.867v-106.193c205.483 0 371.674-166.191 371.674-371.674zM902.637 286.291c-66.37 0-130.086 10.619-189.554 30.265-18.584 5.841-39.291 1.593-54.158-12.743l-116.812-116.812c-150.263 76.459-273.446 199.111-349.905 349.905l116.812 117.343c14.867 13.805 19.115 34.513 13.274 53.096-19.646 59.468-30.265 123.183-30.265 189.554 0 29.203-23.893 53.096-53.096 53.096h-185.837c-29.203 0-53.096-23.893-53.096-53.096 0-498.574 404.063-902.637 902.637-902.637 29.203 0 53.096 23.893 53.096 53.096v185.837c0 29.203-23.893 53.096-53.096 53.096z" />
<glyph unicode="&#xe942;" glyph-name="product-quick" horiz-adv-x="860" d="M772.456 515.372l-62.438-220.358-506.468-24.912c-1.626-0.077-3.187-0.349-4.71-0.723l-21.222 245.992h594.839zM268.791 102.33c28.237 0 51.2-23.156 51.2-51.63s-22.963-51.63-51.2-51.63c-28.237 0-51.2 23.156-51.2 51.63s22.963 51.63 51.2 51.63zM575.989 102.33c28.237 0 51.2-23.156 51.2-51.63s-22.963-51.63-51.2-51.63c-28.237 0-51.2 23.156-51.2 51.63s22.963 51.63 51.2 51.63zM12.792 644.448c0-14.25 11.469-25.815 25.6-25.815h78.924l49.075-570.166v-0.090c0-55.864 46.656-100.937 102.348-100.937 47.603 0 87.667 32.992 99.084 77.445h109.145c11.418-44.454 51.417-77.445 99.020-77.445 56.461 0 102.399 46.325 102.399 103.261s-45.939 103.261-102.399 103.261c-47.603 0-87.603-32.992-99.020-77.445h-109.145c-11.418 44.454-51.417 77.445-99.033 77.445-21.709 0-41.817-6.893-58.406-18.574l-7.181 83.267c0.525-0.026 1.024-0.155 1.562-0.155 0.435 0 0.858 0.013 1.28 0.026l524.797 25.815c10.944 0.542 20.352 8.067 23.36 18.69l76.8 271.059c2.214 7.796 0.666 16.173-4.173 22.64s-12.403 10.274-20.441 10.274h-633.213l-6.874 79.678c-1.152 13.346-12.237 23.582-25.51 23.582h-102.399c-14.131 0-25.6-11.552-25.6-25.815zM599.564 735.256l-31.031 31.701-72.95-81.627v271.653h-47.475v-271.653l-72.38 81.627-29.783-31.701 126.185-131.32z" />
<glyph unicode="&#xe943;" glyph-name="product-buy" horiz-adv-x="1078" d="M999.557 729.249l-82.155-289.945-666.405-32.778c-2.139-0.102-4.194-0.459-6.198-0.951l-27.924 323.674h782.682zM336.84 185.773c37.153 0 67.368-30.469 67.368-67.935s-30.215-67.935-67.368-67.935c-37.153 0-67.368 30.469-67.368 67.935s30.215 67.935 67.368 67.935zM741.049 185.773c37.153 0 67.368-30.469 67.368-67.935s-30.215-67.935-67.368-67.935c-37.154 0-67.368 30.469-67.368 67.935s30.215 67.935 67.368 67.935zM0 899.085c0-18.75 15.090-33.967 33.684-33.967h103.848l64.572-750.218v-0.119c0-73.505 61.389-132.812 134.669-132.812 62.635 0 115.351 43.41 130.374 101.902h143.612c15.023-58.492 67.654-101.902 130.29-101.902 74.29 0 134.736 60.954 134.736 135.869s-60.446 135.869-134.736 135.869c-62.635 0-115.267-43.41-130.29-101.902h-143.612c-15.023 58.492-67.654 101.902-130.307 101.902-28.564 0-55.023-9.069-76.85-24.439l-9.448 109.561c0.691-0.034 1.347-0.204 2.055-0.204 0.573 0 1.128 0.017 1.684 0.034l690.523 33.967c14.4 0.713 26.779 10.615 30.737 24.592l101.052 356.656c2.914 10.258 0.876 21.28-5.49 29.789s-16.32 13.519-26.897 13.519h-833.175l-9.044 104.84c-1.516 17.561-16.101 31.029-33.566 31.029h-134.736c-18.594 0-33.684-15.2-33.684-33.967z" />
<glyph unicode="&#xe944;" glyph-name="menu-more" horiz-adv-x="3584" d="M1332.036 574.171c-80.58 0-145.838-65.258-145.838-145.838s65.258-145.838 145.838-145.838c80.57 0 145.838 65.258 145.838 145.838s-65.268 145.838-145.838 145.838zM1769.55 574.171c-80.58 0-145.838-65.258-145.838-145.838s65.258-145.838 145.838-145.838c80.58 0 145.838 65.258 145.838 145.838s-65.268 145.838-145.838 145.838zM2207.064 574.171c-80.58 0-145.838-65.258-145.838-145.838s65.258-145.838 145.838-145.838c80.57 0 145.838 65.258 145.838 145.838s-65.268 145.838-145.838 145.838z" />
<glyph unicode="&#xe945;" glyph-name="compare-diff-show" horiz-adv-x="1536" d="M760.937-44.635c-308.23 0-583.355 256.26-730.867 512.641 147.147 249.687 422.515 461.036 730.867 461.036 312.49 0 586.337-210.132 730.197-460.306-136.376-269.587-409.31-513.372-730.197-513.372zM101.148 467.519c51.301-80.998 305.37-451.3 659.788-451.3 383.69 0 615.364 371.397 660.336 450.63-46.98 72.904-280.297 401.338-660.336 401.338-372.188 0-610.070-325.878-659.788-400.668zM760.328 746.478c167.959 0 304.274-136.315 304.274-304.274s-136.315-304.274-304.274-304.274c-167.959 0-304.274 136.315-304.274 304.274s136.315 304.274 304.274 304.274zM760.328 685.623c-134.368 0-243.419-109.052-243.419-243.419s109.052-243.419 243.419-243.419c134.368 0 243.419 109.052 243.419 243.419s-109.052 243.419-243.419 243.419z" />
<glyph unicode="&#xe946;" glyph-name="compare-add" d="M862.316 174.933h-53.895v491.52c0 15.046-12.099 27.307-26.947 27.307h-458.105v54.613h458.105c44.571 0 80.842-36.755 80.842-81.92v-491.52zM835.368 135.912l-180.709 213.647 38.050 33.068 142.659-168.673 142.659 168.673 38.050-33.068-180.709-213.647zM700.632 147.627h-458.105c-44.571 0-80.842 36.755-80.842 81.92v491.52h53.895v-491.52c0-15.046 12.099-27.307 26.947-27.307h458.105v-54.613zM331.291 513.399l-142.659 168.646-142.659-168.646-38.050 33.068 180.709 213.62 180.709-213.62-38.050-33.068z" />
<glyph unicode="&#xe947;" glyph-name="social-vk" d="M1018.571 212.486c-1.24 2.672-2.396 4.889-3.47 6.665-17.766 31.998-51.717 71.273-101.833 117.836l-1.059 1.066-0.53 0.523-0.536 0.536h-0.538c-22.745 21.682-37.148 36.261-43.18 43.725-11.036 14.218-13.509 28.61-7.477 43.193 4.261 11.018 20.269 34.285 47.985 69.835 14.579 18.84 26.125 33.94 34.651 45.316 61.495 81.754 88.156 133.997 79.977 156.747l-3.176 5.316c-2.134 3.201-7.643 6.129-16.519 8.799-8.896 2.665-20.267 3.105-34.132 1.33l-153.545-1.061c-2.487 0.881-6.039 0.799-10.667-0.269-4.622-1.068-6.934-1.604-6.934-1.604l-2.672-1.335-2.121-1.604c-1.778-1.061-3.733-2.926-5.867-5.593-2.123-2.657-3.899-5.776-5.318-9.329-16.717-43.008-35.723-82.994-57.054-119.958-13.152-22.041-25.23-41.142-36.261-57.316-11.016-16.168-20.257-28.080-27.716-35.716-7.47-7.643-14.211-13.766-20.265-18.392-6.045-4.627-10.659-6.583-13.854-5.867-3.203 0.715-6.218 1.425-9.074 2.134-4.973 3.201-8.973 7.554-11.989 13.062-3.029 5.509-5.068 12.442-6.134 20.795-1.061 8.358-1.688 15.548-1.867 21.593-0.166 6.037-0.090 14.577 0.271 25.594 0.37 11.023 0.536 18.482 0.536 22.392 0 13.509 0.263 28.17 0.792 43.986 0.538 15.817 0.973 28.349 1.337 37.581 0.362 9.242 0.53 19.019 0.53 29.327s-0.627 18.392-1.867 24.259c-1.225 5.86-3.105 11.548-5.584 17.062-2.493 5.509-6.142 9.77-10.93 12.795-4.797 3.021-10.762 5.419-17.86 7.201-18.84 4.263-42.831 6.569-71.982 6.928-66.108 0.71-108.585-3.559-127.423-12.801-7.464-3.905-14.218-9.24-20.257-15.989-6.4-7.823-7.292-12.091-2.672-12.794 21.329-3.195 36.429-10.838 45.316-22.922l3.203-6.403c2.491-4.62 4.978-12.799 7.468-24.526 2.486-11.727 4.090-24.7 4.795-38.911 1.774-25.951 1.774-48.166 0-66.645-1.78-18.487-3.46-32.879-5.064-43.187s-4.002-18.661-7.199-25.057c-3.203-6.398-5.333-10.308-6.401-11.727-1.066-1.419-1.955-2.314-2.661-2.665-4.62-1.77-9.425-2.672-14.398-2.672-4.98 0-11.019 2.491-18.127 7.47-7.105 4.978-14.48 11.817-22.123 20.526-7.643 8.711-16.263 20.885-25.863 36.522-9.593 15.638-19.546 34.119-29.854 55.445l-8.528 15.466c-5.331 9.949-12.614 24.437-21.856 43.449-9.247 19.019-17.421 37.417-24.526 55.189-2.84 7.464-7.107 13.146-12.794 17.057l-2.669 1.604c-1.774 1.419-4.622 2.926-8.528 4.532-3.912 1.604-7.994 2.754-12.263 3.462l-146.084-1.061c-14.928 0-25.057-3.382-30.39-10.136l-2.134-3.195c-1.066-1.78-1.604-4.622-1.604-8.534 0-3.91 1.066-8.71 3.201-14.392 21.326-50.121 44.517-98.458 69.573-145.020s46.83-84.068 65.308-112.486c18.482-28.439 37.32-55.279 56.515-80.507 19.195-25.238 31.901-41.411 38.117-48.517 6.224-7.119 11.113-12.441 14.667-15.994l13.331-12.794c8.53-8.532 21.057-18.75 37.585-30.655 16.532-11.912 34.834-23.639 54.916-35.2 20.086-11.542 43.452-20.961 70.113-28.246 26.657-7.292 52.603-10.218 77.84-8.807h61.314c12.435 1.074 21.856 4.984 28.259 11.733l2.121 2.672c1.427 2.121 2.762 5.417 3.994 9.852 1.247 4.443 1.867 9.337 1.867 14.661-0.364 15.281 0.799 29.053 3.458 41.314 2.657 12.258 5.686 21.499 9.074 27.723 3.386 6.218 7.206 11.466 11.458 15.72 4.261 4.263 7.298 6.846 9.079 7.735 1.77 0.894 3.184 1.501 4.25 1.866 8.53 2.842 18.569 0.090 30.132-8.271 11.554-8.353 22.39-18.666 32.526-30.924 10.131-12.269 22.302-26.033 36.517-41.314 14.224-15.286 26.661-26.65 37.32-34.125l10.659-6.398c7.119-4.269 16.36-8.179 27.736-11.733 11.356-3.552 21.305-4.441 29.848-2.665l136.482 2.129c13.499 0 24.003 2.235 31.454 6.67 7.466 4.443 11.901 9.337 13.331 14.661 1.427 5.33 1.503 11.376 0.271 18.136-1.264 6.743-2.51 11.458-3.75 14.123z" />
<glyph unicode="&#xe948;" glyph-name="social-ok" d="M461.6 238.725c-79.384 8.279-150.96 27.83-212.241 75.759-7.604 5.963-15.454 11.711-22.393 18.371-26.822 25.761-29.525 55.264-8.301 85.668 18.157 26.018 48.636 32.978 80.317 18.039 6.134-2.896 11.979-6.51 17.578-10.392 114.207-78.472 271.098-80.639 385.733-3.528 11.357 8.708 23.498 15.808 37.568 19.433 27.359 7.025 52.873-3.024 67.555-26.962 16.773-27.337 16.559-54.020-4.108-75.244-31.702-32.539-69.828-56.079-112.191-72.509-40.057-15.529-83.931-23.348-127.355-28.538 6.553-7.132 9.641-10.639 13.738-14.757 58.964-59.243 118.186-118.239 176.957-177.664 20.023-20.248 24.206-45.355 13.181-68.906-12.055-25.739-39.038-42.673-65.495-40.861-16.763 1.158-29.836 9.502-41.451 21.203-44.497 44.775-89.83 88.725-133.425 134.348-12.687 13.266-18.79 10.757-29.986-0.761-44.765-46.084-90.259-91.46-136.021-136.578-20.548-20.259-45.001-23.905-68.831-12.333-25.332 12.28-41.451 38.137-40.207 64.123 0.858 17.578 9.502 31.005 21.567 43.049 58.353 58.267 116.545 116.684 174.758 175.048 3.85 3.882 7.443 8.001 13.052 13.996zM509.957 441.689c-141.619 0.483-257.745 117.885-256.92 259.729 0.815 143.41 117.017 258.979 260.030 258.582 143.303-0.386 258.325-117.617 257.606-262.518-0.729-141.555-117.66-256.287-260.716-255.794zM638.663 701.075c-0.247 70.429-56.337 126.497-126.626 126.562-70.879 0.075-127.473-57.012-126.926-128.084 0.526-70.161 57.098-125.832 127.58-125.575 70.268 0.247 126.208 56.68 125.972 127.098z" />
<glyph unicode="&#xea88;" glyph-name="social-google" d="M522.2 521.2v-175.6h290.4c-11.8-75.4-87.8-220.8-290.4-220.8-174.8 0-317.4 144.8-317.4 323.2s142.6 323.2 317.4 323.2c99.4 0 166-42.4 204-79l139 133.8c-89.2 83.6-204.8 134-343 134-283 0-512-229-512-512s229-512 512-512c295.4 0 491.6 207.8 491.6 500.2 0 33.6-3.6 59.2-8 84.8l-483.6 0.2z" />
<glyph unicode="&#xea90;" glyph-name="social-facebook" d="M608 768h160v192h-160c-123.514 0-224-100.486-224-224v-96h-128v-192h128v-512h192v512h160l32 192h-192v96c0 17.346 14.654 32 32 32z" />
<glyph unicode="&#xea92;" glyph-name="social-instagram" d="M512 867.8c136.8 0 153-0.6 206.8-3 50-2.2 77-10.6 95-17.6 23.8-9.2 41-20.4 58.8-38.2 18-18 29-35 38.4-58.8 7-18 15.4-45.2 17.6-95 2.4-54 3-70.2 3-206.8s-0.6-153-3-206.8c-2.2-50-10.6-77-17.6-95-9.2-23.8-20.4-41-38.2-58.8-18-18-35-29-58.8-38.4-18-7-45.2-15.4-95-17.6-54-2.4-70.2-3-206.8-3s-153 0.6-206.8 3c-50 2.2-77 10.6-95 17.6-23.8 9.2-41 20.4-58.8 38.2-18 18-29 35-38.4 58.8-7 18-15.4 45.2-17.6 95-2.4 54-3 70.2-3 206.8s0.6 153 3 206.8c2.2 50 10.6 77 17.6 95 9.2 23.8 20.4 41 38.2 58.8 18 18 35 29 58.8 38.4 18 7 45.2 15.4 95 17.6 53.8 2.4 70 3 206.8 3zM512 960c-139 0-156.4-0.6-211-3-54.4-2.4-91.8-11.2-124.2-23.8-33.8-13.2-62.4-30.6-90.8-59.2-28.6-28.4-46-57-59.2-90.6-12.6-32.6-21.4-69.8-23.8-124.2-2.4-54.8-3-72.2-3-211.2s0.6-156.4 3-211c2.4-54.4 11.2-91.8 23.8-124.2 13.2-33.8 30.6-62.4 59.2-90.8 28.4-28.4 57-46 90.6-59 32.6-12.6 69.8-21.4 124.2-23.8 54.6-2.4 72-3 211-3s156.4 0.6 211 3c54.4 2.4 91.8 11.2 124.2 23.8 33.6 13 62.2 30.6 90.6 59s46 57 59 90.6c12.6 32.6 21.4 69.8 23.8 124.2 2.4 54.6 3 72 3 211s-0.6 156.4-3 211c-2.4 54.4-11.2 91.8-23.8 124.2-12.6 34-30 62.6-58.6 91-28.4 28.4-57 46-90.6 59-32.6 12.6-69.8 21.4-124.2 23.8-54.8 2.6-72.2 3.2-211.2 3.2v0zM512 711c-145.2 0-263-117.8-263-263s117.8-263 263-263 263 117.8 263 263c0 145.2-117.8 263-263 263zM512 277.4c-94.2 0-170.6 76.4-170.6 170.6s76.4 170.6 170.6 170.6c94.2 0 170.6-76.4 170.6-170.6s-76.4-170.6-170.6-170.6zM846.8 721.4c0-33.91-27.49-61.4-61.4-61.4s-61.4 27.49-61.4 61.4c0 33.91 27.49 61.4 61.4 61.4s61.4-27.49 61.4-61.4z" />
<glyph unicode="&#xea93;" glyph-name="social-whatsapp" d="M873 811.2c-95.8 96-223.2 148.8-359 148.8-279.6 0-507.2-227.6-507.2-507.4 0-89.4 23.4-176.8 67.8-253.6l-72-263 269 70.6c74.2-40.4 157.6-61.8 242.4-61.8h0.2c0 0 0 0 0 0 279.6 0 507.4 227.6 507.4 507.4 0 135.6-52.8 263-148.6 359zM514.2 30.4v0c-75.8 0-150 20.4-214.8 58.8l-15.4 9.2-159.6-41.8 42.6 155.6-10 16c-42.4 67-64.6 144.6-64.6 224.4 0 232.6 189.2 421.8 422 421.8 112.6 0 218.6-44 298.2-123.6 79.6-79.8 123.4-185.6 123.4-298.4-0.2-232.8-189.4-422-421.8-422zM745.4 346.4c-12.6 6.4-75 37-86.6 41.2s-20 6.4-28.6-6.4c-8.4-12.6-32.8-41.2-40.2-49.8-7.4-8.4-14.8-9.6-27.4-3.2s-53.6 19.8-102 63c-37.6 33.6-63.2 75.2-70.6 87.8s-0.8 19.6 5.6 25.8c5.8 5.6 12.6 14.8 19 22.2s8.4 12.6 12.6 21.2c4.2 8.4 2.2 15.8-1 22.2s-28.6 68.8-39 94.2c-10.2 24.8-20.8 21.4-28.6 21.8-7.4 0.4-15.8 0.4-24.2 0.4s-22.2-3.2-33.8-15.8c-11.6-12.6-44.4-43.4-44.4-105.8s45.4-122.6 51.8-131.2c6.4-8.4 89.4-136.6 216.6-191.4 30.2-13 53.8-20.8 72.2-26.8 30.4-9.6 58-8.2 79.8-5 24.4 3.6 75 30.6 85.6 60.2s10.6 55 7.4 60.2c-3 5.6-11.4 8.8-24.2 15.2z" />
<glyph unicode="&#xea95;" glyph-name="social-telegram" d="M512 960c-282.8 0-512-229.2-512-512s229.2-512 512-512 512 229.2 512 512-229.2 512-512 512zM763.6 609l-84-395.8c-5.8-28.2-22.8-34.8-46.4-21.8l-128 94.6-61.4-59.8c-7.2-7-12.8-12.8-25.6-12.8-16.6 0-13.8 6.2-19.4 22l-43.6 143.2-126.6 39.4c-27.4 8.4-27.6 27.2 6.2 40.6l493.2 190.4c22.4 10.2 44.2-5.4 35.6-40z" />
<glyph unicode="&#xea96;" glyph-name="social-twitter" d="M1024 733.6c-37.6-16.8-78.2-28-120.6-33 43.4 26 76.6 67.2 92.4 116.2-40.6-24-85.6-41.6-133.4-51-38.4 40.8-93 66.2-153.4 66.2-116 0-210-94-210-210 0-16.4 1.8-32.4 5.4-47.8-174.6 8.8-329.4 92.4-433 219.6-18-31-28.4-67.2-28.4-105.6 0-72.8 37-137.2 93.4-174.8-34.4 1-66.8 10.6-95.2 26.2 0-0.8 0-1.8 0-2.6 0-101.8 72.4-186.8 168.6-206-17.6-4.8-36.2-7.4-55.4-7.4-13.6 0-26.6 1.4-39.6 3.8 26.8-83.4 104.4-144.2 196.2-146-72-56.4-162.4-90-261-90-17 0-33.6 1-50.2 3 93.2-59.8 203.6-94.4 322.2-94.4 386.4 0 597.8 320.2 597.8 597.8 0 9.2-0.2 18.2-0.6 27.2 41 29.4 76.6 66.4 104.8 108.6z" />
<glyph unicode="&#xea9d;" glyph-name="social-youtube" d="M1013.8 652.8c0 0-10 70.6-40.8 101.6-39 40.8-82.6 41-102.6 43.4-143.2 10.4-358.2 10.4-358.2 10.4h-0.4c0 0-215 0-358.2-10.4-20-2.4-63.6-2.6-102.6-43.4-30.8-31-40.6-101.6-40.6-101.6s-10.2-82.8-10.2-165.8v-77.6c0-82.8 10.2-165.8 10.2-165.8s10-70.6 40.6-101.6c39-40.8 90.2-39.4 113-43.8 82-7.8 348.2-10.2 348.2-10.2s215.2 0.4 358.4 10.6c20 2.4 63.6 2.6 102.6 43.4 30.8 31 40.8 101.6 40.8 101.6s10.2 82.8 10.2 165.8v77.6c-0.2 82.8-10.4 165.8-10.4 165.8zM406.2 315.2v287.8l276.6-144.4-276.6-143.4z" />
</font>
</defs>
</svg>
