<?xml version="1.0" standalone="no"?>
<!DOCTYPE svg PUBLIC "-//W3C//DTD SVG 1.1//EN" "http://www.w3.org/Graphics/SVG/1.1/DTD/svg11.dtd" >
<svg xmlns="http://www.w3.org/2000/svg" xmlns:xlink="http://www.w3.org/1999/xlink" version="1.1">
<metadata>
Created by FontForge 20170731 at Wed May 22 00:41:51 2019
 By Aleksey,,,
</metadata>
<defs>
<font id="icomoon" horiz-adv-x="1024" >
  <font-face 
    font-family="icomoon"
    font-weight="400"
    font-stretch="normal"
    units-per-em="1024"
    panose-1="2 0 5 3 0 0 0 0 0 0"
    ascent="960"
    descent="-64"
    bbox="-0.756098 -64 1317 960.133"
    underline-thickness="0"
    underline-position="0"
    unicode-range="U+0020-E95C"
  />
<missing-glyph 
 />
    <glyph glyph-name=".notdef" 
 />
    <glyph glyph-name=".notdef" 
 />
    <glyph glyph-name=".null" horiz-adv-x="0" 
 />
    <glyph glyph-name="nonmarkingreturn" horiz-adv-x="341" 
 />
    <glyph glyph-name="space" unicode=" " horiz-adv-x="512" 
 />
    <glyph glyph-name="plus" unicode="&#xe900;" 
d="M914 539v-109q0 -23 -16 -39t-39 -16h-237v-238q0 -23 -16 -39t-39 -16h-110q-23 0 -39 16t-16 39v238h-237q-23 0 -39 16t-16 39v109q0 23 16 39t39 16h237v238q0 23 16 39t39 16h110q23 0 39 -16t16 -39v-238h237q23 0 39 -16t16 -39z" />
    <glyph glyph-name="circle" unicode="&#xe901;" 
d="M951 448q0 -119 -59 -220t-160 -160t-220 -59t-220 59t-160 160t-59 220t59 220t160 160t220 59t220 -59t160 -160t59 -220z" />
    <glyph glyph-name="check-square" unicode="&#xe902;" 
d="M465 218l350 351q11 10 11 25t-11 26l-58 58q-11 11 -25.5 11t-25.5 -11l-267 -267l-121 121q-11 11 -25.5 11t-25.5 -11l-58 -58q-11 -11 -11 -26t11 -26l204 -204q11 -11 26 -11t26 11zM951 722v-548q0 -68 -48.5 -116.5t-116.5 -48.5h-548q-68 0 -116.5 48.5
t-48.5 116.5v548q0 68 48.5 116.5t116.5 48.5h548q68 0 116.5 -48.5t48.5 -116.5z" />
    <glyph glyph-name="square" unicode="&#xe903;" 
d="M951 722v-548q0 -68 -48.5 -116.5t-116.5 -48.5h-548q-68 0 -116.5 48.5t-48.5 116.5v548q0 68 48.5 116.5t116.5 48.5h548q68 0 116.5 -48.5t48.5 -116.5z" />
    <glyph glyph-name="ellipsis-h" unicode="&#xe904;" 
d="M329 539v-109q0 -23 -16 -39t-39 -16h-109q-23 0 -39 16t-16 39v109q0 23 16 39t39 16h109q23 0 39 -16t16 -39zM622 539v-109q0 -23 -16 -39t-39 -16h-110q-23 0 -39 16t-16 39v109q0 23 16 39t39 16h110q23 0 39 -16t16 -39zM914 539v-109q0 -23 -16 -39t-39 -16h-109
q-23 0 -39 16t-16 39v109q0 23 16 39t39 16h109q23 0 39 -16t16 -39z" />
    <glyph glyph-name="long-arrow-down" unicode="&#xe905;" 
d="M729.5 218q4.5 -11 -2.5 -20l-200 -220q-6 -5 -13 -5q-8 0 -14 5l-203 220q-7 9 -3 20q5 11 17 11h128v713q0 8 5 13t13 5h110q8 0 13 -5t5 -13v-713h128q12 0 16.5 -11z" />
    <glyph glyph-name="long-arrow-up" unicode="&#xe906;" 
d="M730 678q-5 -11 -17 -11h-128v-713q0 -8 -5 -13t-13 -5h-110q-8 0 -13 5t-5 13v713h-128q-12 0 -16.5 11t2.5 20l200 220q6 5 13 5q8 0 14 -5l203 -220q7 -9 3 -20z" />
    <glyph glyph-name="social-viber" unicode="&#xe907;" 
d="M850 818q-12 12 -32.5 24t-58 28t-98 26.5t-132.5 10.5q-10 1 -27 1.5t-65.5 -3t-91.5 -12t-93.5 -29t-83.5 -51.5q-88 -87 -92 -281q-3 -30 0 -67.5t6 -77t17.5 -80t36 -75t60.5 -62.5t91 -42v0v-93l-0.5 -2t0 -5.5t1.5 -8t2.5 -9t4 -8.5t6.5 -7.5t9 -4.5
q17 -5 29.5 3.5t33.5 31.5q8 10 13 15q17 18 53 60q59 -3 103.5 -2.5t84.5 6.5t59 10t27 6q2 1 17.5 5t27.5 8t32.5 13.5t37 21t36 31.5t33.5 43.5t25.5 58t16.5 75.5q10 87 9 157t-14 126t-34 95t-50 64zM875 392q-4 -27 -10.5 -50.5t-15.5 -41.5t-20 -33t-22 -25.5
t-24 -19.5t-24 -14t-22.5 -9.5t-20 -6.5t-16.5 -4t-10 -2q-12 -4 -38 -9t-84 -10t-114 -1q-93 -113 -123 -142q-7 -8 -13 -6t-6 16v154v0q-43 12 -75.5 36t-50 53t-28.5 63t-13 67t-3.5 65t0.5 57q4 164 77 236q28 26 71 43t79.5 24t77.5 9.5t55.5 2t22.5 -1.5v0
q61 0 113 -8t84.5 -20.5t51 -23t28.5 -18.5q50 -43 70 -141t3 -239v0zM625 538q0 -8 -5.5 -11t-11.5 -0.5t-6 10.5q-3 57 -59 60q-7 1 -9.5 7t0.5 11.5t11 5.5q37 -2 57.5 -23.5t22.5 -59.5zM662 517q1 59 -35 98.5t-102 44.5q-7 0 -9.5 6t1 11.5t10.5 5.5
q76 -6 117.5 -52.5t40.5 -113.5q0 -8 -6 -10.5t-12 0.5t-5 10zM746 493q0 -7 -6 -10t-11.5 0t-5.5 10q-1 106 -62.5 166t-154.5 61q-7 0 -10 6t0 11.5t10 5.5q103 0 171 -67.5t69 -182.5zM726 317v0q-17 -31 -42.5 -49.5t-50.5 -10.5h-1q-30 9 -86.5 39.5t-96.5 62.5
q-22 17 -41.5 36.5t-35.5 39.5q-30 38 -55 84q-17 30 -28.5 55.5t-14.5 34.5l-4 10q-2 9 -1.5 18t4.5 18t10 17t14 15.5t16 13.5t17 11h1q8 4 16 4.5t14.5 -2.5t12.5 -9q0 -1 2 -3t6 -7.5t8 -10t8.5 -10t6.5 -9.5q13 -17 28 -43q5 -9 5 -19t-3 -17t-9 -11l-22 -18
q-4 -4 -6.5 -10t-2.5 -10v-5q4 -13 12.5 -34t47 -62.5t91.5 -54.5q17 -2 26 9l17 22q4 5 11.5 8.5t17 3.5t19.5 -6q48 -27 82 -59q20 -16 7 -42v0z" />
    <glyph glyph-name="long-arrow-right" unicode="&#xe908;" 
d="M987 450q0 -8 -5 -14l-220 -202q-9 -8 -20 -4q-11 5 -11 17v128h-713q-8 0 -13 5t-5 13v110q0 8 5 13t13 5h713v128q0 12 11 16.5t20 -2.5l220 -200q5 -6 5 -13v0z" />
    <glyph glyph-name="long-arrow-left" unicode="&#xe909;" 
d="M1024 503v-110q0 -8 -5 -13t-13 -5h-713v-128q0 -12 -11 -16.5t-20 2.5l-220 200q-5 6 -5 13q0 8 5 14l220 202q9 8 20 4q11 -5 11 -17v-128h713q8 0 13 -5t5 -13v0z" />
    <glyph glyph-name="eye" unicode="&#xe90a;" 
d="M951 411q-87 135 -218 202q35 -59 35 -128q0 -106 -75 -181t-181 -75t-181 75t-75 181q0 69 35 128q-131 -67 -218 -202q76 -117 190.5 -186.5t248.5 -69.5t248.5 69.5t190.5 186.5zM539 631q0 11 -8 19t-19 8q-71 0 -122.5 -51t-51.5 -122q0 -12 8 -20t19.5 -8t19.5 8
t8 20q0 49 35 83.5t84 34.5q11 0 19 8t8 20v0zM1024 411q0 -19 -11 -39q-80 -131 -215.5 -210.5t-285.5 -79.5t-285.5 79.5t-215.5 210.5q-11 20 -11 39.5t11 39.5q80 131 215.5 210.5t285.5 79.5t285.5 -79.5t215.5 -210.5q11 -20 11 -40v0z" />
    <glyph glyph-name="eye-slash" unicode="&#xe90b;" 
d="M317 197l45 81q-50 36 -78 90.5t-28 116.5q0 69 35 128q-131 -67 -218 -202q96 -147 244 -214v0zM539 631q0 11 -8 19t-19 8q-71 0 -122.5 -51t-51.5 -122q0 -12 8 -20t19.5 -8t19.5 8t8 20q0 49 35 83.5t84 34.5q11 0 19 8t8 20v0zM747 740q0 -4 -1 -5l-180 -324
l-180 -324l-28 -50q-6 -10 -16 -10q-7 0 -77 40q-9 6 -9 16q0 7 25 50q-82 37 -150.5 99t-119.5 140q-11 18 -11 39.5t11 39.5q88 134 217.5 212t283.5 78q51 0 103 -10l31 55q5 9 16 9q3 0 10 -3t17.5 -8.5t19 -11t18 -10.5t11.5 -7q9 -5 9 -15v0zM768 485
q0 -80 -45 -145.5t-120 -93.5l160 287q5 -26 5 -48v0zM1024 411q0 -20 -11 -39q-23 -37 -63 -83q-85 -98 -198 -152.5t-240 -54.5l42 76q121 10 224.5 78t172.5 175q-66 103 -161 168l36 64q54 -36 104 -87t83 -105q11 -20 11 -40v0z" />
    <glyph glyph-name="times" unicode="&#xe90c;" 
d="M851 204.5q0 -22.5 -16 -38.5l-77 -78q-16 -16 -39 -16t-39 16l-168 168l-168 -168q-16 -16 -39 -16t-39 16l-77 78q-16 16 -16 38.5t16 38.5l168 168l-168 168q-16 16 -16 39t16 39l77 78q16 16 39 16t39 -16l168 -168l168 168q16 16 39 16t39 -16l77 -78q16 -16 16 -39
t-16 -39l-168 -168l168 -168q16 -16 16 -38.5z" />
    <glyph glyph-name="arrow-up" unicode="&#xe90d;" 
d="M957 405q0 -29 -21 -51l-43 -43q-22 -22 -52 -22q-31 0 -51 22l-168 167v-402q0 -30 -21.5 -48.5t-51.5 -18.5h-74q-30 0 -51.5 18.5t-21.5 48.5v402l-168 -167q-20 -22 -51 -22t-52 22l-42 43q-22 21 -22 51t22 52l372 372q20 21 51 21t52 -21l372 -372q21 -22 21 -52v0
z" />
    <glyph glyph-name="arrow-down" unicode="&#xe90e;" 
d="M957 485q0 -31 -21 -52l-372 -372q-22 -22 -52 -22t-51 22l-372 372q-22 21 -22 52q0 30 22 52l42 42q22 22 52 22t51 -22l168 -168v403q0 29 22 51t51 22h74q29 0 51 -22t22 -51v-403l168 168q21 22 51 22t52 -22l43 -42q21 -23 21 -52v0z" />
    <glyph glyph-name="angle-down" unicode="&#xe90f;" 
d="M797 539q0 -7 -6 -13l-266 -266q-6 -6 -13 -6t-13 6l-266 266q-6 6 -6 13.5t6 13.5l28 28q6 6 13.5 6t12.5 -6l225 -224l225 224q5 6 12.5 6t13.5 -6l28 -28q6 -6 6 -14v0z" />
    <glyph glyph-name="angle-up" unicode="&#xe910;" 
d="M797 283q0 -7 -6 -13l-28 -28q-6 -6 -13.5 -6t-12.5 6l-225 224l-225 -224q-5 -6 -12.5 -6t-13.5 6l-28 28q-6 6 -6 13.5t6 13.5l266 266q6 6 13 6t13 -6l266 -266q6 -6 6 -14v0z" />
    <glyph glyph-name="angle-left" unicode="&#xe911;" 
d="M687 649q0 -7 -5 -13l-225 -225l225 -224q5 -6 5 -13.5t-5 -12.5l-29 -29q-6 -6 -13 -6t-13 6l-266 266q-6 6 -6 13.5t6 13.5l266 266q6 6 13 6t13 -6l29 -29q5 -5 5 -13v0z" />
    <glyph glyph-name="angle-right" unicode="&#xe912;" 
d="M669 411q0 -7 -6 -13l-266 -266q-6 -6 -13 -6t-13 6l-29 29q-5 5 -5 12.5t5 13.5l225 224l-225 225q-5 6 -5 13.5t5 12.5l29 29q6 6 13 6t13 -6l266 -266q6 -6 6 -14v0z" />
    <glyph glyph-name="arrow-left" unicode="&#xe913;" 
d="M951 448v-73q0 -30 -18.5 -51.5t-48.5 -21.5h-402l167 -168q22 -21 22 -52t-22 -51l-43 -44q-21 -21 -51 -21t-52 21l-372 373q-21 21 -21 51t21 52l372 372q22 22 52 22t51 -22l43 -42q22 -22 22 -52.5t-22 -51.5l-167 -168h402q30 0 48.5 -21.5t18.5 -51.5v0z" />
    <glyph glyph-name="arrow-right" unicode="&#xe914;" 
d="M914 411q0 -30 -21 -52l-372 -372q-22 -21 -52 -21q-29 0 -51 21l-43 43q-22 22 -22 52.5t22 51.5l167 168h-402q-30 0 -48.5 21.5t-18.5 51.5v73q0 30 18.5 51.5t48.5 21.5h402l-167 168q-22 21 -22 51.5t22 51.5l43 43q21 22 51 22t52 -22l372 -372q21 -20 21 -52v0z
" />
    <glyph glyph-name="trash" unicode="&#xe915;" 
d="M402 174v402q0 8 -5 13t-13 5h-37q-8 0 -13 -5t-5 -13v-402q0 -8 5 -13.5t13 -5.5h37q8 0 13 5.5t5 13.5zM549 174v402q0 8 -5.5 13t-13.5 5h-36q-8 0 -13.5 -5t-5.5 -13v-402q0 -8 5.5 -13.5t13.5 -5.5h36q8 0 13.5 5.5t5.5 13.5zM695 174v402q0 8 -5 13t-13 5h-37
q-8 0 -13 -5t-5 -13v-402q0 -8 5 -13.5t13 -5.5h37q8 0 13 5.5t5 13.5zM384 741h256l-27 66q-4 6 -10 7h-181q-6 -1 -10 -7zM914 722v-36q0 -8 -5 -13.5t-13 -5.5h-55v-541q0 -48 -27 -82.5t-64 -34.5h-476q-37 0 -64 33.5t-27 80.5v544h-55q-8 0 -13 5.5t-5 13.5v36
q0 8 5 13.5t13 5.5h177l40 95q8 21 30.5 36t45.5 15h182q23 0 45.5 -15t30.5 -36l40 -95h177q8 0 13 -5.5t5 -13.5v0z" />
    <glyph glyph-name="minus" unicode="&#xe916;" 
d="M914 539v-109q0 -23 -16 -39t-39 -16h-694q-23 0 -39 16t-16 39v109q0 23 16 39t39 16h694q23 0 39 -16t16 -39z" />
    <glyph glyph-name="dot-circle" unicode="&#xe917;" 
d="M512 944q-205 0 -350.5 -145.5t-145.5 -350.5t145.5 -350.5t350.5 -145.5t350.5 145.5t145.5 350.5t-145.5 350.5t-350.5 145.5zM672 448q0 -66 -47 -113t-113 -47t-113 47t-47 113t47 113t113 47t113 -47t47 -113z" />
    <glyph glyph-name="plus-circle" unicode="&#xe918;" 
d="M768 411v74q0 14 -11 25t-26 11h-146v146q0 15 -11 26t-25 11h-74q-14 0 -25 -11t-11 -26v-146h-146q-15 0 -26 -11t-11 -25v-74q0 -14 11 -25t26 -11h146v-146q0 -15 11 -26t25 -11h74q14 0 25 11t11 26v146h146q15 0 26 11t11 25zM951 448q0 -119 -59 -220t-160 -160
t-220 -59t-220 59t-160 160t-59 220t59 220t160 160t220 59t220 -59t160 -160t59 -220z" />
    <glyph glyph-name="minus-circle" unicode="&#xe919;" 
d="M768 411v74q0 14 -11 25t-26 11h-438q-15 0 -26 -11t-11 -25v-74q0 -14 11 -25t26 -11h438q15 0 26 11t11 25zM951 448q0 -119 -59 -220t-160 -160t-220 -59t-220 59t-160 160t-59 220t59 220t160 160t220 59t220 -59t160 -160t59 -220z" />
    <glyph glyph-name="star" unicode="&#xe91a;" 
d="M987 590q0 -12 -14 -27l-208 -202l49 -286q1 -4 1 -12q0 -12 -6 -20t-18 -8q-10 0 -22 7l-257 135l-257 -135q-12 -7 -22 -7q-12 0 -18 8t-6 20q0 4 1 12l49 286l-208 202q-14 15 -14 27q0 21 32 27l286 41l129 260q11 24 28 24t28 -24l129 -260l286 -41q32 -6 32 -27v0z
" />
    <glyph glyph-name="clock" unicode="&#xe91b;" 
d="M512 944q-135 0 -249 -66.5t-180.5 -180.5t-66.5 -249t66.5 -249t180.5 -180.5t249 -66.5t249 66.5t180.5 180.5t66.5 249t-66.5 249t-180.5 180.5t-249 66.5zM626 244l-176 128q-10 7 -10 19v337q0 5 2 9.5t5 7.5t7.5 5t9.5 2h96q10 0 17 -7t7 -17v-275l127 -93
q5 -4 7.5 -9.5t2 -12t-4.5 -11.5l-56 -78q-6 -8 -16 -9.5t-18 4.5z" />
    <glyph glyph-name="search" unicode="&#xe91c;" 
d="M1000 -31l-288 298q56 57 87.5 131t31.5 156q0 110 -54.5 203.5t-148 148t-203.5 54.5t-203.5 -54.5t-148 -148t-54.5 -203.5t54.5 -203.5t148 -148t203.5 -54.5q72 0 138.5 24.5t120.5 68.5l288 -299q5 -6 14 -6q2 0 4.5 0.5t4.5 2t4 2.5q6 6 6 14t-5 14zM425 187
q-100 0 -184.5 49t-133.5 133.5t-49 184.5t49 184.5t133.5 133.5t184.5 49t184.5 -49t133.5 -133.5t49 -184.5t-49 -184.5t-133.5 -133.5t-184.5 -49z" />
    <glyph glyph-name="toggle-off" unicode="&#xe91d;" horiz-adv-x="1170" 
d="M658 448q0 59 -23 113t-62.5 93.5t-93.5 63t-113.5 23.5t-113.5 -23.5t-93.5 -63t-62.5 -93.5t-23 -113t23 -113t62.5 -93.5t93.5 -63t113.5 -23.5t113.5 23.5t93.5 63t62.5 93.5t23 113zM1097 448q0 59 -23 113t-62.5 93.5t-93.5 63t-113 23.5h-221q68 -52 107.5 -128.5
t39.5 -164.5t-39.5 -164.5t-107.5 -128.5h221q59 0 113 23.5t93.5 63t62.5 93.5t23 113v0zM1170 448q0 -74 -29 -142t-78 -116.5t-116.5 -78t-141.5 -29.5h-439q-75 0 -142.5 29.5t-116.5 78t-78 116.5t-29 142t29 142t78 116.5t116.5 78t142.5 29.5h439q74 0 141.5 -29.5
t116.5 -78t78 -116.5t29 -142z" />
    <glyph glyph-name="toggle-on" unicode="&#xe91e;" horiz-adv-x="1170" 
d="M0 448q0 74 29 142t78 116.5t116.5 78t142.5 29.5h439q74 0 141.5 -29.5t116.5 -78t78 -116.5t29 -142t-29 -142t-78 -116.5t-116.5 -78t-141.5 -29.5h-439q-75 0 -142.5 29.5t-116.5 78t-78 116.5t-29 142zM804.5 155q59.5 0 113.5 23.5t93.5 63t62.5 93.5t23 113
t-23 113t-62.5 93.5t-93.5 63t-113.5 23.5t-113.5 -23.5t-93.5 -63t-62.5 -93.5t-23 -113t23 -113t62.5 -93.5t93.5 -63t113.5 -23.5z" />
    <glyph glyph-name="twitter" unicode="&#xe91f;" 
d="M962 727q-38 -56 -92 -96v-24q0 -74 -21.5 -148t-66 -142t-105.5 -120t-147.5 -83.5t-184.5 -31.5q-155 0 -283 83q20 -2 44 -2q129 0 229 79q-60 1 -107 36.5t-65 91.5q19 -3 35 -3q24 0 48 6q-64 13 -106 63.5t-42 117.5v3q39 -22 84 -24q-38 25 -60.5 65.5t-22.5 88.5
q0 50 26 93q69 -85 168 -136t212 -57q-4 22 -4 42q0 77 54 131t130 54q80 0 135 -59q62 12 117 45q-21 -66 -81 -102q53 6 106 29v0z" />
    <glyph glyph-name="tasks" unicode="&#xe920;" 
d="M585 155h366v74h-366v-74zM366 448h585v73h-585v-73zM731 741h220v73h-220v-73zM1024 265v-146q0 -15 -11 -26t-26 -11h-950q-15 0 -26 11t-11 26v146q0 15 11 26t26 11h950q15 0 26 -11t11 -26zM1024 558v-147q0 -14 -11 -25t-26 -11h-950q-15 0 -26 11t-11 25v147
q0 15 11 25.5t26 10.5h950q15 0 26 -10.5t11 -25.5zM1024 850v-146q0 -15 -11 -26t-26 -11h-950q-15 0 -26 11t-11 26v146q0 15 11 26t26 11h950q15 0 26 -11t11 -26z" />
    <glyph glyph-name="sort-amount-asc" unicode="&#xe921;" 
d="M421 137q0 -7 -6 -14l-182 -182q-6 -5 -14 -5q-6 0 -13 5l-183 183q-8 9 -4 20q5 11 18 11h109v787q0 8 5.5 13t13.5 5h109q8 0 13.5 -5t5.5 -13v-787h109q8 0 13.5 -5t5.5 -13zM1024 64v-110q0 -8 -5 -13t-13 -5h-476q-8 0 -13 5t-5 13v110q0 8 5 13t13 5h476q8 0 13 -5
t5 -13zM914 357v-110q0 -8 -5 -13t-13 -5h-366q-8 0 -13 5t-5 13v110q0 8 5 13t13 5h366q8 0 13 -5t5 -13zM805 649v-110q0 -8 -5.5 -13t-13.5 -5h-256q-8 0 -13 5t-5 13v110q0 8 5 13t13 5h256q8 0 13.5 -5t5.5 -13zM695 942v-110q0 -8 -5 -13t-13 -5h-147q-8 0 -13 5
t-5 13v110q0 8 5 13t13 5h147q8 0 13 -5t5 -13z" />
    <glyph glyph-name="sort-amount-desc" unicode="&#xe922;" 
d="M695 64v-110q0 -8 -5 -13t-13 -5h-147q-8 0 -13 5t-5 13v110q0 8 5 13t13 5h147q8 0 13 -5t5 -13zM421 137q0 -7 -6 -14l-182 -182q-6 -5 -14 -5q-6 0 -13 5l-183 183q-8 9 -4 20q5 11 18 11h109v787q0 8 5.5 13t13.5 5h109q8 0 13.5 -5t5.5 -13v-787h109q8 0 13.5 -5
t5.5 -13zM805 357v-110q0 -8 -5.5 -13t-13.5 -5h-256q-8 0 -13 5t-5 13v110q0 8 5 13t13 5h256q8 0 13.5 -5t5.5 -13zM914 649v-110q0 -8 -5 -13t-13 -5h-366q-8 0 -13 5t-5 13v110q0 8 5 13t13 5h366q8 0 13 -5t5 -13zM1024 942v-110q0 -8 -5 -13t-13 -5h-476q-8 0 -13 5
t-5 13v110q0 8 5 13t13 5h476q8 0 13 -5t5 -13z" />
    <glyph glyph-name="sort" unicode="&#xe923;" 
d="M805 338q0 -15 -11 -25l-256 -256q-11 -11 -26 -11t-26 11l-256 256q-11 10 -11 25t11 26t26 11h512q15 0 26 -11t11 -26zM805 558q0 -15 -11 -26t-26 -11h-512q-15 0 -26 11t-11 26t11 25l256 256q11 11 26 11t26 -11l256 -256q11 -10 11 -25z" />
    <glyph glyph-name="sort-asc" unicode="&#xe924;" 
d="M805 558q0 -15 -11 -26t-26 -11h-512q-15 0 -26 11t-11 26t11 25l256 256q11 11 26 11t26 -11l256 -256q11 -10 11 -25z" />
    <glyph glyph-name="sort-desc" unicode="&#xe925;" 
d="M805 338q0 -15 -11 -25l-256 -256q-11 -11 -26 -11t-26 11l-256 256q-11 10 -11 25t11 26t26 11h512q15 0 26 -11t11 -26z" />
    <glyph glyph-name="sort-down" unicode="&#xe926;" 
d="M805 338q0 -15 -11 -25l-256 -256q-11 -11 -26 -11t-26 11l-256 256q-11 10 -11 25t11 26t26 11h512q15 0 26 -11t11 -26z" />
    <glyph glyph-name="sliders" unicode="&#xe927;" 
d="M274 155v-73h-201v73h201zM475 229q15 0 26 -11t11 -26v-146q0 -15 -11 -26t-26 -11h-146q-15 0 -25.5 11t-10.5 26v146q0 15 10.5 26t25.5 11h146zM567 448v-73h-494v73h494zM201 741v-74h-128v74h128zM951 155v-73h-421v73h421zM402 814q15 0 26 -11t11 -26v-146
q0 -15 -11 -26t-26 -11h-146q-15 0 -26 11t-11 26v146q0 15 11 26t26 11h146zM768 521q15 0 26 -11t11 -25v-147q0 -15 -11 -25.5t-26 -10.5h-146q-15 0 -26 10.5t-11 25.5v147q0 14 11 25t26 11h146zM951 448v-73h-128v73h128zM951 741v-74h-494v74h494z" />
    <glyph glyph-name="cart" unicode="&#xe928;" 
d="M836 751h-131q-4 77 -60 131t-133 54t-133.5 -54t-59.5 -131h-133l-60 -791h772zM512 894q39 0 73.5 -19t55 -52t22.5 -72h-302q3 60 47 101.5t104 41.5zM225 710h94v-137h41v137h304v-137h41v137h96l54 -708h-684z" />
    <glyph glyph-name="search-minus" unicode="&#xe929;" 
d="M622 503v-37q0 -7 -5.5 -12.5t-13.5 -5.5h-329q-7 0 -12.5 5.5t-5.5 12.5v37q0 7 5.5 12.5t12.5 5.5h329q8 0 13.5 -5.5t5.5 -12.5zM695 484.5q0 105.5 -75 181t-181 75.5t-181 -75.5t-75 -181t75 -180.5t181 -75t181 75t75 180.5zM987 9q0 -30 -21 -51.5t-52 -21.5
t-51 22l-196 195q-102 -71 -228 -71q-82 0 -156.5 32t-128.5 86t-85.5 128.5t-31.5 156t31.5 156t85.5 128.5t128.5 86t156.5 32t156.5 -32t128.5 -86t85.5 -128.5t31.5 -155.5q0 -126 -71 -228l196 -196q21 -22 21 -52v0z" />
    <glyph glyph-name="search-plus" unicode="&#xe92a;" 
d="M622 503v-37q0 -7 -5.5 -12.5t-13.5 -5.5h-128v-128q0 -7 -5 -12.5t-13 -5.5h-36q-8 0 -13.5 5.5t-5.5 12.5v128h-128q-7 0 -12.5 5.5t-5.5 12.5v37q0 7 5.5 12.5t12.5 5.5h128v128q0 8 5.5 13t13.5 5h36q8 0 13 -5t5 -13v-128h128q8 0 13.5 -5.5t5.5 -12.5zM695 484.5
q0 105.5 -75 181t-181 75.5t-181 -75.5t-75 -181t75 -180.5t181 -75t181 75t75 180.5zM987 9q0 -30 -21 -51.5t-52 -21.5t-51 22l-196 195q-102 -71 -228 -71q-82 0 -156.5 32t-128.5 86t-85.5 128.5t-31.5 156t31.5 156t85.5 128.5t128.5 86t156.5 32t156.5 -32t128.5 -86
t85.5 -128.5t31.5 -155.5q0 -126 -71 -228l196 -196q21 -22 21 -52v0z" />
    <glyph glyph-name="question" unicode="&#xe92b;" 
d="M622 242v-137q0 -9 -7 -16t-16 -7h-137q-9 0 -16 7t-7 16v137q0 9 7 16t16 7h137q9 0 16 -7t7 -16zM802 585q0 -31 -8.5 -57.5t-20 -43.5t-31.5 -34t-32.5 -25t-35.5 -20q-23 -14 -39 -38t-16 -38q0 -10 -6.5 -18.5t-15.5 -8.5h-138q-8 0 -14 10.5t-6 21.5v25q0 48 37 90
t82 62q33 15 47.5 31.5t14.5 43.5q0 24 -26.5 42.5t-61.5 18.5q-37 0 -62 -17q-20 -14 -61 -65q-7 -10 -18 -10q-6 0 -14 5l-94 71q-7 6 -8.5 14.5t3.5 16.5q91 152 265 152q46 0 92 -18t83 -47.5t60.5 -72.5t23.5 -91v0z" />
    <glyph glyph-name="photo" unicode="&#xe92c;" horiz-adv-x="1170" 
d="M402 631q0 -46 -32 -78t-77.5 -32t-77.5 32t-32 78t32 78t77.5 32t77.5 -32t32 -78zM987 411v-256h-804v110l183 183l91 -91l293 292zM1042 814h-914q-7 0 -12.5 -5.5t-5.5 -13.5v-694q0 -8 5.5 -13.5t12.5 -5.5h914q8 0 13.5 5.5t5.5 13.5v694q0 8 -5.5 13.5t-13.5 5.5z
M1134 795v-694q0 -38 -27 -65t-65 -27h-914q-38 0 -64.5 27t-26.5 65v694q0 38 26.5 65t64.5 27h914q38 0 65 -27t27 -65z" />
    <glyph glyph-name="pencil" unicode="&#xe92d;" 
d="M281 82l52 52l-135 135l-52 -52v-62h73v-73h62zM579 613q0 12 -12 12q-6 0 -10 -4l-310 -310q-4 -4 -4 -9q0 -13 13 -13q6 0 10 4l309 310q4 4 4 10zM549 722l237 -237l-475 -476h-238v238zM939 667q0 -30 -21 -51l-95 -95l-238 238l95 94q21 22 51 22q31 0 52 -22
l135 -134q21 -22 21 -52v0z" />
    <glyph glyph-name="paypal" unicode="&#xe92e;" 
d="M941 591q10 -48 -2 -117q-50 -253 -323 -253h-25q-14 0 -25 -9.5t-14 -24.5l-2 -11l-32 -198l-1 -8q-3 -15 -14 -24.5t-25 -9.5h-144q-12 0 -18.5 8.5t-5.5 20.5l15 96t15.5 96t15.5 96l15 96q3 21 25 21h75q76 -1 135 12q100 22 164 82q58 54 88 141q14 40 20 76
q1 3 2 4t2 0.5t3 -2.5q45 -33 56 -92v0zM843 752q0 -61 -26 -135q-46 -133 -173 -180q-65 -23 -144 -24h-51h-52q-57 0 -67 -55q-1 -4 -49 -303q0 -5 -7 -5h-168q-13 0 -21 9.5t-7 21.5l133 841q3 16 15.5 27t29.5 11h342q19 0 55.5 -7.5t63.5 -18.5q61 -23 93.5 -70
t32.5 -112z" />
    <glyph glyph-name="paper-plane" unicode="&#xe92f;" 
d="M1008 954q19 -14 15 -37l-146 -878q-3 -16 -18 -25q-8 -5 -18 -5q-6 0 -14 3l-258 106l-139 -169q-10 -13 -28 -13q-7 0 -12 2q-11 4 -17.5 13.5t-6.5 21.5v199l493 605l-610 -528l-226 92q-21 8 -23 32q-1 22 18 33l951 549q9 5 18 5q12 0 21 -6v0z" />
    <glyph glyph-name="location-arrow" unicode="&#xe930;" 
d="M910 761l-365 -732q-10 -20 -33 -20q-3 0 -9 1q-12 3 -20 13t-8 23v329h-329q-12 0 -22 7.5t-13 20t2 24t17 17.5l731 366q8 4 17 4q15 0 25 -11q9 -8 11 -20t-4 -22v0z" />
    <glyph glyph-name="life-bouy" unicode="&#xe931;" 
d="M512 960q104 0 199 -40.5t163.5 -109t109 -163.5t40.5 -199t-40.5 -199t-109 -163.5t-163.5 -109t-199 -40.5t-199 40.5t-163.5 109t-109 163.5t-40.5 199t40.5 199t109 163.5t163.5 109t199 40.5zM512 887q-109 0 -206 -52l111 -110q46 16 95 16t95 -16l111 110
q-97 52 -206 52zM125 242l110 111q-16 46 -16 95t16 95l-110 111q-52 -97 -52 -206t52 -206zM512 9q109 0 206 52l-111 110q-46 -16 -95 -16t-95 16l-111 -110q97 -52 206 -52zM512 229q91 0 155 64t64 155t-64 155t-155 64t-155 -64t-64 -155t64 -155t155 -64zM789 353
l110 -111q52 97 52 206t-52 206l-110 -111q16 -46 16 -95t-16 -95z" />
    <glyph glyph-name="laptop" unicode="&#xe932;" horiz-adv-x="1170" 
d="M274 229q-37 0 -64 26.5t-27 64.5v402q0 38 27 65t64 27h622q38 0 64.5 -27t26.5 -65v-402q0 -38 -26.5 -64.5t-64.5 -26.5h-622zM256 722v-402q0 -7 5.5 -12.5t12.5 -5.5h622q7 0 12.5 5.5t5.5 12.5v402q0 8 -5.5 13.5t-12.5 5.5h-622q-7 0 -12.5 -5.5t-5.5 -13.5z
M1042 192h92v-55q0 -23 -27 -39t-65 -16h-914q-38 0 -64.5 16t-26.5 39v55h1005v0zM631 137q9 0 9 9t-9 9h-92q-9 0 -9 -9t9 -9h92z" />
    <glyph glyph-name="paw" unicode="&#xe933;" 
d="M482 690q0 -34 -10.5 -64.5t-36 -53t-60.5 -22.5q-43 0 -78.5 33t-52.5 77.5t-17 86.5q0 34 11 64.5t36 53t60 22.5q44 0 79 -33t52 -77t17 -87v0zM287 414q0 -45 -24 -79t-68 -34t-81 32t-57 76.5t-20 86.5q0 46 24 80t68 34q43 0 80.5 -32t57.5 -76.5t20 -87.5z
M512 430q67 0 145.5 -56t131 -135.5t52.5 -145.5q0 -26 -9.5 -43.5t-27.5 -26t-37 -11.5t-44 -3q-38 0 -106.5 26t-104.5 26q-38 0 -110 -25.5t-115 -25.5q-104 0 -104 83q0 49 32 109.5t79.5 110t107 83.5t110.5 34v0zM649 550q-35 0 -60.5 22.5t-36 53t-10.5 64.5
q0 43 17 87t52 77t79 33q35 0 60 -22.5t36 -53t11 -64.5q0 -42 -17 -86.5t-52.5 -77.5t-78.5 -33v0zM895 610q44 0 68 -34t24 -80q0 -42 -20 -86.5t-57 -76.5t-81 -32t-68 34t-24 79q0 43 20 87.5t57.5 76.5t80.5 32z" />
    <glyph glyph-name="mobile" unicode="&#xe934;" 
d="M558 155.5q0 18.5 -13.5 32t-32.5 13.5t-32.5 -13.5t-13.5 -32t13.5 -32t32.5 -13.5t32.5 13.5t13.5 32zM677 247v402q0 8 -5.5 13t-13.5 5h-292q-8 0 -13.5 -5t-5.5 -13v-402q0 -8 5.5 -13t13.5 -5h292q8 0 13.5 5t5.5 13zM567 731.5q0 9.5 -9 9.5h-92q-9 0 -9 -9.5
t9 -9.5h92q9 0 9 9.5zM731 741v-586q0 -29 -21.5 -51t-51.5 -22h-292q-30 0 -51.5 22t-21.5 51v586q0 29 21.5 51t51.5 22h292q30 0 51.5 -22t21.5 -51z" />
    <glyph glyph-name="google" unicode="&#xe935;" 
d="M512 511h414q7 -38 7 -73q0 -124 -52 -221.5t-148 -152.5t-221 -55q-90 0 -171 34.5t-140 93.5t-93.5 140t-34.5 171t34.5 171t93.5 140t140 93.5t171 34.5q171 0 294 -115l-119 -115q-70 68 -175 68q-74 0 -136.5 -37t-99 -101t-36.5 -139t36.5 -139t99 -101t136.5 -37
q50 0 91.5 13.5t68.5 34t47 47t29.5 50t12.5 44.5h-249v151v0z" />
    <glyph glyph-name="folder-open" unicode="&#xe936;" horiz-adv-x="1170" 
d="M1110 416q0 -18 -17 -38l-192 -226q-25 -29 -69.5 -49.5t-81.5 -20.5h-622q-19 0 -34.5 7.5t-15.5 24.5q0 18 18 38l192 226q25 29 69 49.5t82 20.5h622q19 0 34 -7.5t15 -24.5zM914 613v-92h-475q-54 0 -113 -27t-93 -68l-196 -230v7v7v549q0 52 37.5 90t90.5 38h182
q53 0 90.5 -38t37.5 -90v-18h311q53 0 90.5 -38t37.5 -90v0z" />
    <glyph glyph-name="filter" unicode="&#xe937;" 
d="M911 791q10 -23 -8 -40l-281 -281v-424q0 -24 -23 -34q-7 -3 -14 -3q-15 0 -26 11l-146 146q-11 11 -11 26v278l-281 281q-18 17 -8 40q9 23 33 23h732q24 0 33 -23z" />
    <glyph glyph-name="user" unicode="&#xe938;" 
d="M689 359l-2 1q-5 3 -9.5 5t-9.5 3q-11 5 -21 8q-8 3 -18 6q-13 4 -27 6q-2 1 -4.5 1.5t-4.5 0.5l-2 1q-8 1 -17 3h-1v0h-2q-4 1 -7 1.5t-7 0.5l-16 1q-30 2 -60 0h-5l-3 -1h-7q-2 0 -3.5 -0.5t-3.5 -0.5t-4 -0.5t-3.5 -0.5t-3.5 -1h-2q-3 0 -6 -0.5t-6 -1.5q-7 -1 -14 -3
q-13 -3 -25 -6q-10 -3 -20 -7l-4 -1q-20 -7 -39 -16l-3 -1v-1q-111 -52 -176.5 -156.5t-65.5 -226.5v-10v-1l1 -26h848l1 26v11q0 124 -67.5 229t-180.5 157v0zM128 -22q2 109 61.5 202t158.5 140l5 1v1q5 2 10.5 4.5t10.5 4.5t11 4l3 1l18 6q11 3 23 6h3.5t3 0.5l3 1
t2.5 0.5q8 1 10 2h2q2 0 3.5 0.5t3.5 0.5t3.5 0.5t3.5 0.5h4l13 2q28 2 56 0l13 -1q4 -1 10 -2l5 -1q7 -1 15 -2h2q5 -1 9 -2q3 -1 7.5 -2t8.5 -2l8 -2q4 -2 8 -3t7 -2q4 -1 7 -2.5t6 -2.5t7 -2l18 -8h1q101 -47 161.5 -140.5t62.5 -203.5h-768v0zM409 451q3 -2 10 -4l7 -2
q5 -2 8 -3q12 -4 24.5 -6.5t25.5 -4t27 -1.5h2h13t13 1q2 0 3.5 0.5t2.5 0.5h3l7 1q6 1 11 2l8 2v0l7 2q7 2 10 3l6 2l6 2q8 3 13 5q1 0 4 2l2 1l17 8l3 2q6 3 10.5 5.5t8.5 5.5t10 7l10 9q31 25 52.5 57.5t33 69t11.5 75.5v2q0 110 -78 187.5t-187 77.5q-105 0 -181.5 -72
t-83.5 -176v-4q-1 -8 -1 -13q0 -80 44.5 -146.5t117.5 -97.5v0zM289 705l1 4q5 88 69.5 148.5t153.5 60.5q92 0 157.5 -65t65.5 -156v-2q0 -17 -2.5 -33.5t-7 -32t-11.5 -30t-16 -28t-20.5 -26t-23.5 -23.5l-10 -7q-2 -1 -3 -2l-2 -2l-2 -2q-6 -3 -16 -9l-3 -2q-5 -2 -14 -7
l-6 -2q-3 -1 -9 -4l-7 -2q-3 -1 -4 -2q-2 0 -8 -2l-8 -2q-4 -1 -5 -1q-3 -1 -8 -1l-1 -1l-8 -1q-4 0 -6 -1q-10 -1 -21 -1h-2q-34 0 -66 10q-1 1 -6 2l-7 3h-1l-7 3q-62 26 -99 82t-37 124v10v0z" />
    <glyph glyph-name="file-code-o" unicode="&#xe939;" 
d="M912 743q16 -16 27.5 -43.5t11.5 -50.5v-658q0 -23 -16 -39t-39 -16h-768q-23 0 -39 16t-16 39v914q0 23 16 39t39 16h512q23 0 50.5 -11.5t43.5 -27.5zM658 882v-215h215q-6 17 -12 24l-179 179q-7 7 -24 12zM878 9v585h-238q-23 0 -39 16t-16 39v238h-439v-878h732v0z
M347 521q5 6 12.5 7t13.5 -3l29 -22q7 -5 7.5 -12.5t-3.5 -13.5l-104 -139l104 -139q4 -6 3.5 -13.5t-7.5 -11.5l-29 -22q-6 -5 -13.5 -4t-12.5 7l-129 172q-8 11 0 22zM806 349q8 -11 0 -22l-129 -172q-5 -6 -12.5 -7t-13.5 4l-29 22q-7 4 -7.5 11.5t3.5 13.5l104 139
l-104 139q-4 6 -3.5 13.5t7.5 12.5l29 22q6 4 13.5 3t12.5 -7zM451 86q-7 1 -11.5 7t-2.5 14l78 475q2 7 8 11.5t14 3.5l36 -6q7 -1 11.5 -7.5t2.5 -13.5l-78 -475q-2 -8 -8 -12t-14 -3z" />
    <glyph glyph-name="facebook" unicode="&#xe93a;" 
d="M767 953v-151h-89q-49 0 -66.5 -20.5t-17.5 -61.5v-108h168l-23 -169h-145v-434h-175v434h-145v169h145v125q0 106 59.5 164.5t158.5 58.5q84 0 130 -7v0z" />
    <glyph glyph-name="exchange" unicode="&#xe93b;" 
d="M1024 283v-109q0 -8 -5.5 -13.5t-12.5 -5.5h-787v-109q0 -8 -5 -13.5t-13 -5.5q-7 0 -14 6l-182 183q-5 5 -5 13t5 13l183 183q5 5 13 5t13 -5.5t5 -13.5v-109h787q7 0 12.5 -5.5t5.5 -13.5v0zM1024 594q0 -8 -5 -13l-183 -183q-5 -5 -13 -5t-13 5.5t-5 12.5v110h-787
q-7 0 -12.5 5.5t-5.5 12.5v110q0 8 5.5 13t12.5 5h787v110q0 8 5 13t13 5q7 0 14 -5l182 -183q5 -5 5 -13z" />
    <glyph glyph-name="ellipsis-v" unicode="&#xe93c;" 
d="M622 247v-110q0 -23 -16 -39t-39 -16h-110q-23 0 -39 16t-16 39v110q0 23 16 39t39 16h110q23 0 39 -16t16 -39zM622 539v-109q0 -23 -16 -39t-39 -16h-110q-23 0 -39 16t-16 39v109q0 23 16 39t39 16h110q23 0 39 -16t16 -39zM622 832v-110q0 -23 -16 -39t-39 -16h-110
q-23 0 -39 16t-16 39v110q0 23 16 39t39 16h110q23 0 39 -16t16 -39z" />
    <glyph glyph-name="desktop" unicode="&#xe93d;" horiz-adv-x="1170" 
d="M1061 393v476q0 7 -5.5 12.5t-13.5 5.5h-914q-7 0 -12.5 -5.5t-5.5 -12.5v-476q0 -7 5.5 -12.5t12.5 -5.5h914q8 0 13.5 5.5t5.5 12.5zM1134 869v-622q0 -38 -27 -65t-65 -27h-311q0 -21 9.5 -44t18.5 -40.5t9 -24.5q0 -15 -11 -26t-26 -11h-292q-15 0 -26 11t-11 26
q0 8 9.5 25t18.5 40t9 44h-311q-38 0 -64.5 27t-26.5 65v622q0 37 26.5 64t64.5 27h914q38 0 65 -27t27 -64v0z" />
    <glyph glyph-name="credit-card" unicode="&#xe93e;" horiz-adv-x="1170" 
d="M1042 887q38 0 65 -27t27 -65v-694q0 -38 -27 -65t-65 -27h-914q-38 0 -64.5 27t-26.5 65v694q0 38 26.5 65t64.5 27h914zM128 814q-7 0 -12.5 -5.5t-5.5 -13.5v-128h951v128q0 8 -5.5 13.5t-13.5 5.5h-914v0zM1042 82q8 0 13.5 5.5t5.5 13.5v347h-951v-347
q0 -8 5.5 -13.5t12.5 -5.5h914v0zM183 155v74h146v-74h-146zM402 155v74h220v-74h-220z" />
    <glyph glyph-name="cc-visa" unicode="&#xe93f;" horiz-adv-x="1317" 
d="M1129 394h-79q8 21 37 103l2 5q2 5 5.5 14.5t5.5 14.5l7 -31zM303 431l-33 169q-6 31 -43 31h-153l-1 -8q178 -45 230 -192v0zM406 631l-93 -250l-10 50q-14 40 -48 74t-75 51l77 -291h100l149 366h-100v0zM485 264h95l59 367h-94zM924 622q-39 15 -85 15
q-70 0 -115 -33.5t-45 -87.5q-1 -58 83 -99q27 -14 38 -24t11 -22q0 -17 -17 -26.5t-40 -9.5q-49 0 -89 19l-12 7l-14 -83q43 -19 106 -19q74 -1 119 33.5t46 91.5q0 61 -80 99q-28 15 -40.5 24.5t-12.5 21.5q0 13 14 22.5t40 9.5q40 0 71 -14l9 -5zM1167 631h-73
q-37 0 -50 -31l-141 -336h100l20 55h121q3 -13 11 -55h88zM1317 814v-732q0 -29 -22 -51t-52 -22h-1170q-30 0 -51.5 22t-21.5 51v732q0 29 21.5 51t51.5 22h1170q30 0 52 -22t22 -51z" />
    <glyph glyph-name="cc-paypal" unicode="&#xe940;" horiz-adv-x="1317" 
d="M426 442q0 -21 -14.5 -35t-36.5 -14q-16 0 -26 9t-10 25q0 22 14 36.5t36 14.5q16 0 26.5 -9.5t10.5 -26.5v0zM874 527q0 -24 -12.5 -32.5t-37.5 -8.5h-18l9 61q2 6 8 6h10q13 0 20.5 -1t14 -7t6.5 -18v0zM1075 442q0 -20 -14.5 -34.5t-35.5 -14.5q-16 0 -26.5 9
t-10.5 25q0 22 14.5 36.5t35.5 14.5q16 0 26.5 -9.5t10.5 -26.5v0zM293 540q0 34 -22 49t-57 15h-92q-11 0 -12 -11l-37 -233q0 -3 2 -6t6 -3h43q11 0 13 11l10 63q0 4 3.5 7t9 4t10 1t10.5 -1t8 -1q49 0 77 28t28 77v0zM470 362l23 149q1 3 -1.5 6t-5.5 3h-44q-8 0 -9 -19
q-16 23 -55 23q-41 0 -70 -31t-29 -72q0 -34 20 -54t53 -20q16 0 33 7t28 18q-3 -7 -3 -12q0 -9 8 -9h39q11 0 13 11v0zM725 512q0 3 -2 5.5t-5 2.5h-44q-7 0 -11 -6l-60 -89l-25 86q-3 9 -13 9h-43q-3 0 -5 -2.5t-2 -5.5q0 -1 11 -33.5t24 -70.5t13 -40q-46 -64 -46 -69
q0 -7 7 -7h44q6 0 10 6l146 210q1 1 1 4v0zM942 540q0 34 -22 49t-57 15h-91q-11 0 -13 -11l-37 -233q0 -3 2 -6t6 -3h47q6 0 9 7l10 67q1 4 4 7t8.5 4t10 1t10.5 -1t8 -1q49 0 77 28t28 77v0zM1119 362l23 149q1 3 -1.5 6t-5.5 3h-44q-8 0 -9 -19q-15 23 -55 23
q-41 0 -69.5 -31t-28.5 -72q0 -34 19.5 -54t52.5 -20q17 0 34 7t27 18q0 -1 -1.5 -5.5t-1.5 -6.5q0 -9 8 -9h39q11 0 13 11v0zM1243 595v1q0 8 -7 8h-42q-7 0 -8 -6l-37 -238v-1q0 -3 2 -5.5t6 -2.5h37q11 0 12 11zM224 519q-3 -20 -15 -26.5t-34 -6.5h-19l10 61q1 6 7 6h11
q23 0 33 -6.5t7 -27.5v0zM1317 814v-732q0 -29 -22 -51t-52 -22h-1170q-30 0 -51.5 22t-21.5 51v732q0 29 21.5 51t51.5 22h1170q30 0 52 -22t22 -51z" />
    <glyph glyph-name="cc-mastercard" unicode="&#xe941;" horiz-adv-x="1317" 
d="M639 765q-73 49 -160 49q-59 0 -113 -23.5t-93 -62t-62 -92.5t-23 -113t23 -112.5t62 -92.5t92.5 -62t113.5 -23q87 0 160 48q-74 61 -101 151.5t0 181t101 151.5v0zM658 751q-72 -56 -98 -142t0 -172t98 -142q73 56 99 142t-0.5 172t-98.5 142v0zM677 765
q74 -61 101.5 -151.5t0.5 -181t-102 -151.5q73 -48 161 -48q59 0 113 23t92.5 62t62 92.5t23.5 112.5t-23.5 113t-62 92.5t-92.5 62t-113 23.5q-88 0 -161 -49v0zM1101 353h4v1h-10v-1h4v-10h2v10zM1117 343h2v11h-2l-4 -7l-3 7h-3v-11h2v8l3 -7h2l3 7v-8zM1113 91v-1h-3v2
h3v-1zM1113 86h1l-2 3h1l1 1v1.5v1.5l-1 1h-5v-8h2v3v0zM391 125q0 11 6.5 18t17.5 7q10 0 16.5 -7.5t6.5 -17.5q0 -11 -6.5 -17.5t-16.5 -6.5q-11 0 -17.5 6.5t-6.5 17.5v0zM662 150q17 0 20 -18h-40q3 18 20 18zM865 125q0 11 6.5 18t16.5 7t16.5 -7.5t6.5 -17.5
q0 -11 -6 -17.5t-17 -6.5q-10 0 -16.5 6.5t-6.5 17.5v0zM1021 125q0 10 6.5 17.5t16.5 7.5t16.5 -7.5t6.5 -17.5q0 -11 -6.5 -17.5t-16.5 -6.5t-16.5 7t-6.5 17v0zM1111 84q-1 0 -2 1q-1 0 -2 1l-1 1q-1 2 -1 3t1 2q0 1 1 2v1h2q1 1 2 1q2 0 2 -1l2 -1l2 -2v-1v-1v-1v-2h-1
l-1 -1q-1 -1 -2 -1q0 -1 -2 -1v0zM342 86h17v49q0 14 -8 22t-22 9q-19 0 -27 -14q-8 14 -26 14q-14 0 -22 -12v9h-17v-77h17v43q0 21 19 21q17 0 17 -21v-43h16v43q0 21 19 21q17 0 17 -21v-43v0zM437 86h17v77h-17v-9q-10 12 -24 12q-17 0 -28 -11.5t-11 -29.5t11 -29
t28 -11q16 0 24 11v-10zM539 110q0 19 -27 23l-8 1q-13 2 -13 8q0 8 14 8q13 0 25 -6l7 14q-13 8 -32 8q-15 0 -23.5 -7t-8.5 -18q0 -19 27 -23l7 -1q14 -2 14 -8q0 -10 -18 -10q-14 0 -25 8l-8 -13q15 -9 33 -9q17 0 26.5 6.5t9.5 18.5v0zM613 90l-4 15q-8 -4 -15 -4
q-11 0 -11 12v35h27v15h-27v24h-17v-24h-16v-15h16v-35q0 -28 27 -28q12 0 20 5zM662 166q-16 0 -27 -11.5t-11 -29.5t11 -29t28 -11q19 0 32 10l-8 13q-10 -9 -22 -9q-20 0 -24 19h58v7q0 18 -10.5 29.5t-26.5 11.5v0zM753 166q-13 0 -20 -12v9h-17v-77h17v44q0 20 17 20
q5 0 10 -3l5 16q-5 3 -12 3zM770 125q0 -18 11.5 -29t29.5 -11q17 0 28 9l-8 13q-10 -7 -20 -6q-10 0 -17 6.5t-7 17.5t7 18t17 7q11 0 20 -7l8 14q-12 9 -28 9q-18 0 -29.5 -11.5t-11.5 -29.5v0zM910 86h17v77h-17v-9q-8 12 -24 12t-27.5 -11.5t-11.5 -29.5t11.5 -29
t27.5 -11t24 11v-10zM986 166q-13 0 -20 -12v9h-16v-77h16v44q0 20 17 20q6 0 10 -3l5 16q-4 3 -12 3zM1066 86h17v109h-17v-41q-8 12 -24 12t-27.5 -12t-11.5 -29t11.5 -28.5t27.5 -11.5t24 11v-10v0zM1111 98l-1 -1h-2q-1 0 -2 -2q-2 0 -2 -2q-1 -1 -1 -3t1 -3q0 -1 2 -2
q1 -2 2 -2.5t3 -0.5t3 1l1 1l2 1l1 2q1 1 1 3t-1 3q0 1 -1 2q0 1 -2 2h-1l-1.5 0.5l-1.5 0.5v0zM1317 814v-732q0 -29 -22 -51t-52 -22h-1170q-30 0 -51.5 22t-21.5 51v732q0 29 21.5 51t51.5 22h1170q30 0 52 -22t22 -51z" />
    <glyph glyph-name="cc-amex" unicode="&#xe942;" horiz-adv-x="1317" 
d="M68 570h51l-26 62zM423 270l42 45l-40 45h-93v-28h81v-31h-81v-31h91zM513 314l57 -63v124zM678 341q0 19 -23 19h-48v-39h47q24 0 24 20v0zM843 343q0 17 -24 17h-47v-35h46q25 0 25 18zM684 610q0 16 -24 16h-47v-34h46q25 0 25 18v0zM946 570h51l-25 62zM399 659v-155
h-37v121l-54 -121h-33l-53 121v-121h-76l-14 34h-77l-14 -34h-40l66 155h55l63 -147v147h60l49 -105l44 105h61v0zM717 341q0 -11 -3 -19.5t-8 -14.5t-13 -9.5t-15 -5.5t-18 -2.5t-18 -0.5h-18.5h-16.5v-52h-72l-46 52l-47 -52h-147v155h149l46 -51l47 51h118q62 0 62 -51v0
zM551 536v-32h-124v155h124v-33h-87v-28h85v-31h-85v-31h87zM1317 217v-131q0 -32 -22 -54.5t-54 -22.5h-1166q-31 0 -53 22.5t-22 54.5v387h63l15 35h31l14 -35h125v26l11 -26h64l12 27v-27h309v57h6q5 0 5 -8v-49h160v13q13 -7 31.5 -10t30 -3.5t36 0t29.5 0.5l14 35h32
l14 -35h130v33l19 -33h104v216h-102v-25l-15 25h-105v-25l-14 25h-142q-39 0 -62 -12v12h-98v-12q-14 12 -42 12h-359l-25 -55l-24 55h-113v-25l-13 25h-96l-45 -102v223q0 32 22 54.5t53 22.5h1166q32 0 54 -22.5t22 -54.5v-387h-69q-29 0 -46 -13v13h-101q-32 0 -45 -13
v13h-181v-13q-17 13 -49 13h-120v-13q-13 13 -52 13h-133l-31 -33l-29 33h-199v-216h196l31 34l30 -34h120v51h12q34 0 52 7v-58h99v56h5q4 0 5.5 -1t1.5 -5v-50h302q33 0 50 14v-14h96q35 0 55 10v0zM883 350q0 -13 -6.5 -24.5t-19.5 -16.5q14 -5 19.5 -14.5t5.5 -26.5v-31
h-37v26q0 19 -7 25t-27 6h-39v-57h-37v155h88q27 0 43.5 -8.5t16.5 -33.5v0zM725 617q0 -14 -7 -25t-19 -17q15 -5 19.5 -14.5t4.5 -26.5v-30h-37q0 5 0.5 15t0 14.5t-2 10.5t-4.5 9t-10 5t-17 2h-40v-56h-36v155l87 -1q28 0 44.5 -8t16.5 -33v0zM1027 269v-32h-123v155h123
v-32h-86v-28h85v-31h-85v-31zM784 659v-155h-38v155h38zM1180 286q0 -49 -58 -49h-72v33h72q19 0 19 15q0 9 -9.5 11.5t-23.5 2.5t-28.5 2t-24 13t-9.5 32q0 22 14.5 34t37.5 12h75v-33h-68q-21 0 -21 -14q0 -9 10 -11.5t24 -2.5t28 -1.5t24 -12t10 -31.5zM1317 315v-58
q-14 -20 -51 -20h-71v33h71q19 0 19 15q0 7 -7 10.5t-17.5 3t-23 1t-23 4.5t-17.5 14t-7 28q0 22 15 34t38 12h74v-33h-68q-20 0 -20 -14q0 -11 16.5 -12.5t39 -3t32.5 -14.5v0zM1222 658v-154h-52l-70 116v-116h-75l-15 34h-77l-14 -34h-43q-74 0 -74 76q0 79 76 79h36v-34
q-4 0 -16 0.5t-16 0.5t-13 -1t-12.5 -4t-8.5 -7.5t-6.5 -13t-1.5 -19.5q0 -22 7.5 -33t28.5 -11h17l52 121h56l62 -146v146h56l66 -107v107h37v0z" />
    <glyph glyph-name="camera" unicode="&#xe943;" horiz-adv-x="1170" 
d="M585 576q68 0 116.5 -48.5t48.5 -116.5t-48.5 -116t-116.5 -48t-116 48t-48 116t48 116.5t116 48.5zM987 814q61 0 104 -43t43 -104v-512q0 -60 -43 -103t-104 -43h-804q-61 0 -103.5 43t-42.5 103v512q0 61 42.5 104t103.5 43h128l29 77q11 28 40 48.5t59 20.5h292
q31 0 59.5 -20.5t39.5 -48.5l29 -77h128zM585 155q106 0 181 75.5t75 181t-75 180.5t-181 75t-181 -75t-75 -180.5t75 -181t181 -75.5z" />
    <glyph glyph-name="bell" unicode="&#xe944;" 
d="M521 -9q0 9 -9 9q-34 0 -58 24.5t-24 57.5q0 9 -9.5 9t-9.5 -9q0 -41 29.5 -70.5t71.5 -29.5q9 0 9 9zM987 155q0 -29 -21.5 -51t-51.5 -22h-256q0 -60 -42.5 -103t-103.5 -43t-103.5 43t-42.5 103h-256q-30 0 -51.5 22t-21.5 51q28 24 51.5 50.5t48.5 68.5t42.5 90.5
t28.5 117.5t11 149q0 87 67 161.5t176 90.5q-5 11 -5 22q0 23 16 39t39 16t39 -16t16 -39q0 -11 -5 -22q109 -16 176 -90.5t67 -161.5q0 -80 11 -149t28.5 -117.5t42.5 -90.5t48.5 -68.5t51.5 -50.5v0z" />
    <glyph glyph-name="bell-slash" unicode="&#xe945;" horiz-adv-x="1170" 
d="M890 473q35 -203 171 -318q0 -29 -22 -51t-52 -22h-256q0 -60 -42.5 -103t-103 -43t-103.5 42.5t-43 103.5zM585 -18q9 0 9 9t-9 9q-34 0 -58 24.5t-24 57.5q0 9 -9 9t-9 -9q0 -41 29 -70.5t71 -29.5zM1158 896q4 -6 4 -13.5t-6 -12.5l-1070 -927q-5 -5 -13 -4.5t-12 6.5
l-48 55q-5 6 -4.5 13.5t5.5 12.5l107 92q-11 18 -11 37q28 24 51.5 50.5t48.5 68.5t42.5 90.5t29 117.5t11.5 149q0 87 66.5 161.5t175.5 90.5q-5 11 -5 22q0 23 16 39t39 16t39 -16t16 -39q0 -11 -5 -22q71 -10 125.5 -47t84.5 -90l239 207q6 5 13.5 4.5t12.5 -6.5z" />
    <glyph glyph-name="youtube-play" unicode="&#xe946;" 
d="M406 315l277 143l-277 145v-288v0zM512 808q96 0 185.5 -2.5t131.5 -5.5l41 -2q1 0 10 -1t13 -2t13.5 -2.5t16.5 -4.5t16 -7.5t17.5 -11t16.5 -15.5q4 -3 9 -10t16.5 -33.5t15.5 -57.5q4 -37 6.5 -78.5t3.5 -64.5v-101q1 -83 -10 -166q-4 -31 -14.5 -56.5t-18.5 -35.5
l-8 -9q-8 -9 -16.5 -15.5t-17.5 -11t-16 -7t-16.5 -4.5t-13.5 -2.5t-13 -1.5t-10 -1q-143 -11 -358 -11q-118 1 -205.5 3.5t-114.5 4.5l-28 2l-21 3q-20 2 -30.5 5t-29 12t-32.5 24q-4 3 -9 10t-16.5 33.5t-15.5 57.5q-4 37 -6.5 78.5t-3.5 64.5v101q-1 83 10 166
q4 31 14.5 56.5t18.5 35.5l8 9q8 9 16.5 15.5t17.5 11t16 7.5t16.5 4.5t13.5 2.5t13 2t10 1q143 10 358 10v0z" />
    <glyph glyph-name="telegram" unicode="&#xe947;" 
d="M679 213l84 396q6 25 -5.5 36t-29.5 4l-494 -190q-16 -6 -22 -14t-1.5 -15.5t18.5 -11.5l126 -39l293 184q12 8 18 4q4 -3 -2 -9l-237 -214l-9 -130q13 0 25 12l62 60l128 -95q37 -20 46 22v0zM1024 448q0 -104 -40.5 -199t-109 -163.5t-163.5 -109t-199 -40.5t-199 40.5
t-163.5 109t-109 163.5t-40.5 199t40.5 199t109 163.5t163.5 109t199 40.5t199 -40.5t163.5 -109t109 -163.5t40.5 -199z" />
    <glyph glyph-name="odnoklassniki" unicode="&#xe948;" 
d="M512 442q-107 0 -183 76t-76 183t76 183t183 76t183 -76t76 -183t-76 -183t-183 -76zM512 829q-53 0 -90 -37.5t-37 -90.5t37 -90.5t90 -37.5t90 37.5t37 90.5t-37 90.5t-90 37.5zM811 410q7 -15 8.5 -28t-2.5 -23t-15.5 -22t-24 -21.5t-35.5 -23.5q-65 -42 -180 -54
l42 -41l153 -152q17 -18 17 -42.5t-17 -41.5l-7 -8q-18 -17 -42.5 -17t-42.5 17q-38 39 -152 153l-153 -153q-18 -17 -42.5 -17t-41.5 17l-7 8q-18 17 -18 41.5t18 42.5l194 193q-116 12 -181 54q-23 14 -35.5 23.5t-24 21.5t-15.5 22t-2.5 23t8.5 28q6 12 16 20.5t24 12.5
t32 -1t37 -20q3 -3 9 -7t24.5 -14t39 -17t52.5 -13.5t65 -6.5q52 0 99.5 14.5t68.5 28.5l22 15q19 15 37 20t32 1t24 -12.5t16 -20.5v0z" />
    <glyph glyph-name="phone" unicode="&#xe949;" 
d="M823 -64q-66 0 -151 32q-192 73 -379.5 260.5t-260.5 379.5q-32 85 -32 150.5t32 97.5q4 4 8 8.5t10 11.5q20 20 31.5 31t31 26t38.5 21.5t40 5.5q30 -1 59 -20t59 -56q24 -30 39.5 -57t23.5 -47t6.5 -40t-4.5 -32.5t-15.5 -29.5t-21 -25.5l-25.5 -25.5l-11 -11
q-4 -4 -5.5 -11t3 -24.5t18.5 -41.5t47.5 -64.5t83.5 -90.5q87 -86 145 -125q66 -42 87 -22l11 11q48 50 78 61q69 25 179 -64q73 -59 76 -118q1 -21 -5.5 -40t-21.5 -38.5t-26 -31t-32 -31.5q-14 -13 -19 -18q-16 -16 -40.5 -24t-56.5 -8v0zM187 926q-20 0 -41.5 -13
t-34.5 -25.5t-36 -35.5q-13 -14 -19 -20q-24 -24 -21.5 -81.5t29.5 -129.5q70 -186 253 -368q58 -59 120.5 -108t125 -85.5t122.5 -59.5q72 -27 129.5 -29.5t81.5 21.5q6 7 20 19q24 23 36.5 36.5t25 36t12.5 41.5q-2 44 -63 93q-26 21 -47.5 34t-37.5 20.5t-32 7t-26 -2.5
t-24 -12.5t-21.5 -17.5t-23.5 -23l-11 -11q-20 -20 -52.5 -15.5t-76.5 33.5q-62 40 -151 129q-110 109 -145.5 177.5t-1.5 102.5l11 11q16 16 23 23.5t17.5 21.5t12.5 24t2.5 26t-7 32t-20.5 37.5t-34 47.5q-49 61 -93 63h-0.5h-1.5z" />
    <glyph glyph-name="vk" unicode="&#xe94a;" horiz-adv-x="1170" 
d="M1132 663q13 -37 -86 -168q-13 -18 -37 -49q-23 -29 -31.5 -41t-17.5 -28t-7 -24t7.5 -20t19 -24.5t32.5 -30.5q2 -1 3 -2q80 -75 109 -126q2 -3 4 -7.5t4 -15t-0.5 -19.5t-14.5 -16t-34 -7l-146 -2q-14 -3 -32 2.5t-30 12.5l-11 7q-17 12 -40 36.5t-39 44.5t-35 33.5
t-32 8.5q-2 -1 -5 -2t-9.5 -8t-12 -17t-10 -30t-3.5 -44q0 -9 -2 -16t-5 -10l-2 -3q-10 -11 -30 -13h-66q-40 -2 -83 9.5t-75.5 30t-59 38t-40.5 32.5l-14 14q-6 6 -16 17.5t-40.5 52t-60.5 86t-70 120.5t-75 156q-3 9 -3 15t2 9l2 4q9 10 33 10l156 2q7 -2 13.5 -4.5
t8.5 -4.5l3 -2q9 -6 14 -18q11 -29 26 -59.5t24 -46.5l9 -16q16 -35 31.5 -60t28 -39t24 -22t19.5 -8t15 3l3 3t7 12.5t7.5 27t5.5 46t0 71.5q-1 23 -5 42t-8 26l-4 7q-14 19 -48 24q-8 2 3 14q9 11 21 17q31 15 137 14q47 -1 77 -7q12 -3 19.5 -8t11.5 -14t6 -18.5t2 -26
t-0.5 -31t-1.5 -40t-1 -47.5q0 -6 -0.5 -24t0 -27.5t2 -23t6.5 -22.5t13 -14q4 -1 9.5 -2t15 6.5t21.5 19.5t29.5 38t39.5 62q34 59 61 128q2 6 5.5 10t6.5 6l2 2l3 1l7 2h12l164 1q23 3 37 -1t18 -9z" />
    <glyph glyph-name="instagram" unicode="&#xe94b;" 
d="M658 448q0 61 -42.5 103.5t-103.5 42.5t-103.5 -42.5t-42.5 -103.5t42.5 -103.5t103.5 -42.5t103.5 42.5t42.5 103.5zM737 448q0 -94 -65.5 -159.5t-159.5 -65.5t-159.5 65.5t-65.5 159.5t65.5 159.5t159.5 65.5t159.5 -65.5t65.5 -159.5zM799 682.5q0 -21.5 -15.5 -37
t-37 -15.5t-37 15.5t-15.5 37t15.5 37t37 15.5t37 -15.5t15.5 -37zM512 808q-4 0 -43.5 0.5t-60.5 0t-55.5 -2t-58.5 -5.5t-41 -11q-28 -11 -50 -33t-33 -50q-7 -17 -11 -41t-5.5 -58.5t-2 -55.5t0 -60.5t0.5 -43.5t-0.5 -43.5t0 -60.5t2 -55.5t5.5 -58.5t11 -41
q11 -28 33 -50t50 -33q17 -7 41 -11t58.5 -5.5t55.5 -2t60.5 0t43.5 0.5t43.5 -0.5t60.5 0t55.5 2t58.5 5.5t41 11q28 11 50 33t33 50q7 17 11 41t5.5 58.5t2 55.5t0 60.5t-0.5 43.5t0.5 43.5t0 60.5t-2 55.5t-5.5 58.5t-11 41q-11 28 -33 50t-50 33q-17 7 -41 11t-58.5 5.5
t-55.5 2t-60.5 0t-43.5 -0.5zM951 448q0 -131 -3 -181q-6 -119 -71 -184t-184 -71q-50 -3 -181 -3t-181 3q-119 6 -184 71t-71 184q-3 50 -3 181t3 181q6 119 71 184t184 71q50 3 181 3t181 -3q119 -6 184 -71t71 -184q3 -50 3 -181z" />
    <glyph glyph-name="heart-o" unicode="&#xe94c;" 
d="M951 619q0 47 -12.5 82.5t-31.5 56t-46.5 34t-53.5 18t-56 4.5t-64 -14.5t-63 -36.5t-49.5 -41.5t-34.5 -35.5q-10 -12 -28 -12t-28 12q-14 16 -34.5 35.5t-49.5 41.5t-63 36.5t-64 14.5t-56 -4.5t-53.5 -18t-46.5 -34t-31.5 -56t-12.5 -82.5q0 -96 107 -202l332 -320
l331 319q108 107 108 203v0zM1024 619q0 -126 -131 -257l-356 -343q-10 -10 -25 -10t-25 10l-357 344q-5 5 -15 15.5t-32 37.5t-39 55.5t-30.5 69t-13.5 78.5q0 126 72.5 197t200.5 71q36 0 72.5 -12.5t68.5 -33t54.5 -39t43.5 -39.5q21 21 43.5 39.5t54.5 39t68.5 33
t72.5 12.5q128 0 200.5 -71t72.5 -197v0z" />
    <glyph glyph-name="heart" unicode="&#xe94d;" 
d="M512 9q-15 0 -25 10l-357 344q-5 5 -15 15.5t-32 37.5t-39 55.5t-30.5 69t-13.5 78.5q0 126 72.5 197t200.5 71q36 0 72.5 -12.5t68.5 -33t54.5 -39t43.5 -39.5q21 21 43.5 39.5t54.5 39t68.5 33t72.5 12.5q128 0 200.5 -71t72.5 -197t-131 -257l-356 -343
q-10 -10 -25 -10v0z" />
    <glyph glyph-name="bars" unicode="&#xe94e;" 
d="M0 798h1024v-47h-1024v47zM0 146h1024v-46h-1024v46zM0 472h1024v-47h-1024v47z" />
    <glyph glyph-name="comments" unicode="&#xe94f;" 
d="M805 521q0 -79 -54 -146.5t-147 -106.5t-202 -39q-49 0 -100 9q-71 -51 -159 -73q-21 -6 -49 -10h-2q-6 0 -11.5 5t-6.5 12q-1 2 -1 4t0.5 3.5t1.5 3.5l1 3l2 3l2 3l3 3l2 2q3 4 13.5 14.5t15 16.5t12.5 16.5t14 22t12 25.5q-71 41 -111.5 101t-40.5 128q0 80 53.5 147
t146.5 106.5t202 39.5t202 -39.5t147 -106.5t54 -147v0zM1024 375q0 -69 -40.5 -128.5t-111.5 -100.5q6 -14 12 -25.5t14 -22t12.5 -16.5t15 -17t13.5 -14q0 -1 2 -3t3 -2.5t2 -2.5l2 -4l1 -2l2 -4v-4l-1 -3q-1 -8 -7 -12.5t-13 -4.5q-28 4 -49 9q-88 23 -159 73
q-51 -9 -100 -9q-155 0 -270 76q33 -3 50 -3q92 0 176.5 26t151.5 74q71 52 109.5 121t38.5 145q0 44 -13 87q73 -41 116 -102t43 -131v0z" />
    <glyph glyph-name="share-alt" unicode="&#xe950;" 
d="M768 375q76 0 129.5 -53.5t53.5 -129.5t-53.5 -129.5t-129.5 -53.5t-129.5 53.5t-53.5 129.5q0 7 1 19l-205 103q-53 -49 -125 -49q-76 0 -129.5 53.5t-53.5 129.5t53.5 129.5t129.5 53.5q72 0 125 -49l205 103q-1 12 -1 19q0 76 53.5 129.5t129.5 53.5t129.5 -53.5
t53.5 -129.5t-53.5 -129.5t-129.5 -53.5q-72 0 -125 49l-205 -103q1 -12 1 -19t-1 -19l205 -103q53 49 125 49z" />
    <glyph glyph-name="exclamation-triangle" unicode="&#xe952;" 
d="M585 174v109q0 8 -5.5 13.5t-12.5 5.5h-110q-7 0 -12.5 -5.5t-5.5 -13.5v-109q0 -8 5.5 -13.5t12.5 -5.5h110q7 0 12.5 5.5t5.5 13.5zM584 388l10 262q0 7 -5 11q-8 6 -14 6h-126q-6 0 -14 -6q-5 -4 -5 -12l9 -261q0 -6 6 -9.5t14 -3.5h106q8 0 13 3.5t6 9.5v0zM576 922
l439 -805q20 -36 -1 -72q-10 -16 -27 -26t-36 -10h-878q-19 0 -36 10t-27 26q-21 36 -1 72l439 805q10 17 27 27.5t37 10.5t37 -10.5t27 -27.5z" />
    <glyph glyph-name="exclamation" unicode="&#xe953;" 
d="M622 247v-128q0 -15 -11 -26t-26 -11h-146q-15 0 -26 11t-11 26v128q0 15 11 25.5t26 10.5h146q15 0 26 -10.5t11 -25.5zM639 850l-16 -439q-1 -14 -12 -25t-26 -11h-146q-15 0 -26 11t-12 25l-16 439q0 15 10.5 26t25.5 11h182q15 0 25.5 -11t10.5 -26v0z" />
    <glyph glyph-name="check" unicode="&#xe954;" 
d="M955 637q0 -23 -16 -39l-492 -492q-16 -16 -38.5 -16t-38.5 16l-285 285q-16 16 -16 39t16 39l78 77q16 16 39 16t39 -16l168 -168l374 375q16 16 39 16t39 -16l78 -78q16 -16 16 -38v0z" />
    <glyph glyph-name="info" unicode="&#xe955;" 
d="M695 192v-73q0 -15 -11 -26t-26 -11h-292q-15 0 -26 11t-11 26v73q0 15 11 26t26 11h36v219h-36q-15 0 -26 11t-11 26v73q0 15 11 25.5t26 10.5h219q15 0 26 -10.5t11 -25.5v-329h36q15 0 26 -11t11 -26zM622 850v-109q0 -15 -11 -26t-26 -11h-146q-15 0 -26 11t-11 26
v109q0 15 11 26t26 11h146q15 0 26 -11t11 -26z" />
    <glyph glyph-name="envelope" unicode="&#xe956;" 
d="M1024 554v-453q0 -38 -27 -65t-64 -27h-842q-37 0 -64 27t-27 65v453q25 -28 58 -49q207 -141 284 -198q32 -24 52.5 -37t54 -27t62.5 -14h2q29 0 62.5 14t54 27t52.5 37q97 71 285 198q32 22 57 49zM1024 722q0 -45 -28 -86t-70 -70q-215 -149 -267 -186
q-6 -4 -24.5 -17.5t-31 -21.5t-29.5 -18.5t-32.5 -15.5t-28.5 -5h-2q-13 0 -28.5 5t-32.5 15.5t-29.5 18.5t-31 21.5t-24.5 17.5q-52 37 -149.5 104.5t-117.5 81.5q-35 24 -66.5 66t-31.5 78q0 44 23.5 74t67.5 30h842q37 0 64 -27t27 -65v0z" />
    <glyph glyph-name="map-marker" unicode="&#xe957;" 
d="M512 408q-72 0 -123.5 51t-51.5 123.5t51.5 124t123.5 51.5t123.5 -51.5t51.5 -123.5q0 -48 -23.5 -88t-63.5 -63.5t-88 -23.5zM512 727q-60 0 -102 -42t-42 -102q0 -29 11.5 -56t30.5 -46.5t46 -30.5t56 -11q60 0 102 42t42 102q0 39 -19 72.5t-52.5 52.5t-72.5 19z
M512 -64q-7 0 -12 6q-135 161 -240 331q-125 203 -125 310q0 102 50.5 189t137.5 137.5t189 50.5t189 -50.5t137.5 -137.5t50.5 -189q0 -57 -38 -144.5t-85 -163t-109 -160.5t-88.5 -118t-44.5 -56q-2 -2 -5.5 -3.5t-6.5 -1.5zM512 929q-94 0 -173.5 -46.5t-126 -126
t-46.5 -173.5q0 -49 31 -123t72 -142t95.5 -146t86.5 -119.5t61 -76.5q29 35 61 76.5t86.5 119.5t95.5 146t72 142t31 123q0 40 -9 79t-26 73t-41 64t-54 54t-64 41t-73 26t-79 9z" />
    <glyph glyph-name="snapchat-ghost" unicode="&#xe958;" 
d="M521 887q77 0 137.5 -39.5t93.5 -109.5q15 -33 15 -103q0 -26 -5 -109q8 -4 16 -4q11 0 29.5 8t29.5 8q16 0 31.5 -10.5t15.5 -26.5q0 -18 -18 -30.5t-39.5 -18t-39.5 -16.5t-18 -27q0 -9 7 -25q21 -47 58.5 -86t82.5 -57q16 -7 46 -14q16 -3 16 -20q0 -40 -125 -58
q-4 -7 -6.5 -23t-8 -26.5t-18.5 -10.5q-12 0 -36 4t-36 4q-22 0 -36 -3q-18 -3 -36 -13t-33 -22t-33 -23t-43.5 -19t-56.5 -8q-30 0 -55.5 8t-43 19t-32.5 23t-33 22t-36 13q-14 3 -36 3q-13 0 -37 -4.5t-33 -4.5q-15 0 -20.5 10.5t-8 27t-6.5 23.5q-125 18 -125 58
q0 17 16 20q30 7 46 14q44 18 82 57.5t59 85.5q7 16 7 25q0 16 -18 27t-40 16.5t-40 18t-18 30.5q0 15 15 25.5t32 10.5q8 0 27 -7.5t30 -7.5t19 4q-5 81 -5 109q0 70 15 103q37 78 98.5 113t150.5 36v0z" />
    <glyph glyph-name="whatsapp" unicode="&#xe959;" 
d="M636 403q7 0 55.5 -25t51.5 -30q1 -3 1 -9q0 -18 -10 -43q-9 -22 -40.5 -37.5t-58.5 -15.5q-32 0 -108 36q-56 26 -97 67.5t-85 105.5q-41 61 -40 111v4q1 52 42 91q14 12 30 12q3 0 10 -0.5t11 -0.5q11 0 15 -4t9 -16q4 -11 18.5 -50t14.5 -43q0 -12 -20 -33t-20 -26
q0 -4 3 -9q20 -42 59 -78q32 -31 86 -58q7 -4 12 -4q9 0 31.5 27.5t29.5 27.5v0zM520 101q73 0 139.5 28.5t114.5 76.5t76.5 114.5t28.5 139t-28.5 139t-76.5 114.5t-114.5 76.5t-139.5 28.5t-139.5 -28.5t-114.5 -76.5t-76.5 -114.5t-28.5 -139.5q0 -116 69 -210l-45 -133
l138 44q90 -59 197 -59v0zM520 890q87 0 167 -34t137.5 -92t92 -137.5t34.5 -167t-34.5 -167t-92 -137.5t-137.5 -92t-167 -34q-111 0 -209 53l-238 -76l78 231q-62 102 -62 222q0 88 34.5 167.5t92 137.5t137.5 92t167 34v0z" />
    <glyph glyph-name="calendar" unicode="&#xe95a;" 
d="M110 9h164v165h-164v-165zM311 9h183v165h-183v-165zM110 210h164v183h-164v-183zM311 210h183v183h-183v-183zM110 430h164v164h-164v-164zM530 9h183v165h-183v-165zM311 430h183v164h-183v-164zM750 9h164v165h-164v-165zM530 210h183v183h-183v-183zM329 704v165
q0 7 -5.5 12.5t-12.5 5.5h-37q-7 0 -12.5 -5.5t-5.5 -12.5v-165q0 -7 5.5 -12.5t12.5 -5.5h37q7 0 12.5 5.5t5.5 12.5zM750 210h164v183h-164v-183zM530 430h183v164h-183v-164zM750 430h164v164h-164v-164zM768 704v165q0 7 -5.5 12.5t-12.5 5.5h-37q-7 0 -12.5 -5.5
t-5.5 -12.5v-165q0 -7 5.5 -12.5t12.5 -5.5h37q7 0 12.5 5.5t5.5 12.5zM987 741v-732q0 -30 -21.5 -51.5t-51.5 -21.5h-804q-30 0 -51.5 21.5t-21.5 51.5v732q0 29 21.5 51t51.5 22h73v55q0 37 27 64t64 27h37q38 0 64.5 -27t26.5 -64v-55h220v55q0 37 26.5 64t64.5 27h37
q37 0 64 -27t27 -64v-55h73q30 0 51.5 -22t21.5 -51v0z" />
    <glyph glyph-name="shopping-cart" unicode="&#xe95b;" 
d="M402 82.5q0 -29.5 -21.5 -51.5t-51.5 -22t-51.5 22t-21.5 51.5t21.5 51t51.5 21.5t51.5 -21.5t21.5 -51zM914 82.5q0 -29.5 -21.5 -51.5t-51.5 -22t-51.5 22t-21.5 51.5t21.5 51t51.5 21.5t51.5 -21.5t21.5 -51zM987 704v-293q0 -13 -9 -23.5t-23 -12.5l-597 -70
q8 -34 8 -40q0 -9 -14 -36h526q15 0 25.5 -11t10.5 -26t-10.5 -26t-25.5 -11h-585q-15 0 -26 11t-11 26q0 6 4.5 18t9 20.5t12.5 22.5t9 17l-101 471h-117q-15 0 -25.5 10.5t-10.5 25.5t10.5 26t25.5 11h146q10 0 17 -4t11 -9t7.5 -14t4.5 -15t3 -16.5t3 -14.5h686
q15 0 25.5 -11t10.5 -26v0z" />
    <glyph glyph-name="compare" unicode="&#xe95c;" 
d="M847 622l155 43q12 4 18 14.5t3 22.5q-2 8 -8 14t-13.5 7.5t-15.5 -0.5l-192 -53h-1l-251 -70v330q0 12 -9 21t-21 9t-21 -9t-9 -21v-347l-267 -74v0l-193 -53q-8 -3 -13.5 -8.5t-7.5 -13t0 -15.5q1 -5 4 -9.5t7 -7t8.5 -4t9.5 -1.5q4 0 8 1l120 33l-154 -257
q-4 -7 -4 -15q0 -92 65.5 -157.5t157.5 -65.5q60 0 111.5 30t81.5 81t30 112q0 8 -5 15l-172 288l468 130l-154 -257q-1 -2 -2 -3t-1.5 -3t-0.5 -3.5t-0.5 -3t-0.5 -3.5q0 -92 65.5 -157t157.5 -65t157.5 65t65.5 157q0 9 -4 16zM363 189h-280l140 233l140 -233v0zM661 349
l140 233l140 -233h-280v0z" />
  </font>
</defs>
</svg>
